<?xml version="1.0" encoding="iso-8859-1"?>
<!-- Generator: Adobe Illustrator 21.0.0, SVG Export Plug-In . SVG Version: 6.00 Build 0)  -->
<svg xmlns="http://www.w3.org/2000/svg" xmlns:xlink="http://www.w3.org/1999/xlink" version="1.1" id="Capa_1" x="0px" y="0px" viewBox="0 0 512 512" style="enable-background:new 0 0 512 512;" xml:space="preserve" width="512" height="512">
<g>
	<g>
		<g>
			<g>
				<g>
					<circle style="fill:#2864F0;" cx="256" cy="256" r="256"/>
				</g>
			</g>
		</g>
	</g>
	<path style="fill:#0053BF;" d="M512,256c0-4.866-0.149-9.696-0.417-14.495L270.495,0.417l-43.337,384.297L115.443,273l27.725,162   l74.084,74.083C229.888,511.002,242.828,512,256,512C397.385,512,512,397.385,512,256z"/>
	<g>
		<path style="fill:#FFFFFF;" d="M417.542,335.073L417.542,335.073c-47.65,15.981-99.232-9.692-115.213-57.342l-26.08-77.761l0,0    c47.65-15.981,99.232,9.692,115.213,57.342L417.542,335.073z"/>
	</g>
	<g>
		<path style="fill:#E9EDF5;" d="M391.462,257.313c-15.981-47.65-67.564-73.322-115.213-57.342l0,0l0,0l141.293,135.102    L391.462,257.313z"/>
	</g>
	<g>
		<g>
			<path style="fill:#FFD400;" d="M199.719,456.844c-46.47,0-84.275-37.806-84.275-84.276V273l57,80v19.568     c0,15.04,12.235,27.276,27.275,27.276s27.276-12.236,27.276-27.276V175.095h57v197.474     C283.995,419.038,246.188,456.844,199.719,456.844z"/>
		</g>
	</g>
	<g>
		<g>
			<path style="fill:#FFA300;" d="M255.595,175.095v260.488c17.404-15.45,28.4-37.967,28.4-63.015V175.095H255.595z"/>
		</g>
	</g>
	<g>
		<path style="fill:#E6E6E6;" d="M270.495,0.417C265.696,0.149,260.866,0,256,0c-5.208,0-10.374,0.174-15.505,0.481v174.614h30    V0.417z"/>
	</g>
	<g>
		<path style="fill:#D7D7D7;" d="M270.495,0.417C265.696,0.149,260.866,0,256,0c-0.135,0-0.27,0.003-0.405,0.003v175.091h14.9V0.417    z"/>
	</g>
	<g>
		<circle style="fill:#FF583E;" cx="267.144" cy="188.537" r="57.442"/>
	</g>
	<g>
		<path style="fill:#F92814;" d="M267.144,131.094c-3.956,0-7.818,0.401-11.549,1.162v112.56c3.731,0.762,7.593,1.162,11.549,1.162    c31.724,0,57.442-25.718,57.442-57.442C324.586,156.812,298.868,131.094,267.144,131.094z"/>
	</g>
</g>















</svg>
