<svg id="Capa_1" enable-background="new 0 0 512 512" height="512" viewBox="0 0 512 512" width="512" xmlns="http://www.w3.org/2000/svg"><g><g><g><g><g><g><g><g><circle cx="256" cy="256" fill="#4a7aff" r="256"/></g></g></g></g></g></g></g><path d="m507.531 303.876-47.876-47.876h-13.871l-132.637-133.409-138.965 112.925-97.182 107.406 168.881 168.881c3.357.13 6.73.197 10.119.197 125.022 0 229.112-89.621 251.531-208.124z" fill="#0053bf"/><g><path d="m351.971 172.74-38.824-50.149-33.022 19.66-45.22-19.66-16.923 46.292h-36.074l12.538 87.117z" fill="#bfe1ff"/></g><g><path d="m351.971 339.26-38.824 50.149-33.022-19.66-45.22 19.66-16.923-46.292h-36.074l12.538-87.117z" fill="#87c7ff"/></g><g><path d="m200.702 318.367-62.366-62.367 62.367-62.367c54.286-54.286 142.3-54.286 196.586 0l62.366 62.367-62.367 62.367c-54.285 54.285-142.3 54.285-196.586 0z" fill="#a3d4ff"/></g><g><path d="m138.336 256 62.367 62.367c54.286 54.286 142.3 54.286 196.586 0l62.366-62.367h-.182z" fill="#65b1fc"/></g><g><path d="m77 169.077v173.845l86.922-86.922z" fill="#a3d4ff"/></g><g><path d="m77 256v86.922l86.922-86.922z" fill="#65b1fc"/></g><g><path d="m355.88 165.051v181.899c15.015-6.729 29.081-16.256 41.408-28.583l62.367-62.367-62.367-62.367c-12.327-12.326-26.392-21.854-41.408-28.582z" fill="#bfe1ff"/></g><g><path d="m355.88 256v90.949c15.015-6.729 29.081-16.256 41.408-28.583l62.367-62.366z" fill="#87c7ff"/></g><g><ellipse cx="391.598" cy="235.516" fill="#636978" rx="16.17" ry="16.17" transform="matrix(.23 -.973 .973 .23 72.412 562.528)"/></g><g><path d="m297.876 173.084h30v165.833h-30z" fill="#87c7ff"/></g><g><path d="m297.876 256h30v82.916h-30z" fill="#4a98f7"/></g><g><path d="m246.418 189.257h30v133.485h-30z" fill="#87c7ff"/></g><g><path d="m246.418 256h30v66.742h-30z" fill="#4a98f7"/></g><g><path d="m194.961 216.458h30v79.083h-30z" fill="#87c7ff"/></g><g><path d="m194.961 256h30v39.541h-30z" fill="#4a98f7"/></g></g></svg>