<?xml version="1.0" encoding="UTF-8"?>
<svg xmlns="http://www.w3.org/2000/svg" xmlns:xlink="http://www.w3.org/1999/xlink" width="375pt" height="374.999991pt" viewBox="0 0 375 374.999991" version="1.2">
<defs>
<clipPath id="clip1">
  <path d="M 46.417969 30 L 366 30 L 366 286 L 46.417969 286 Z M 46.417969 30 "/>
</clipPath>
<clipPath id="clip2">
  <path d="M 279.269531 62.722656 C 265.375 62.285156 252.207031 65.035156 240.335938 70.246094 C 230.351562 74.589844 218.628906 70.96875 212.984375 61.5625 C 201.40625 42.894531 180.710938 30.304688 157.121094 30.304688 C 141.777344 30.304688 127.59375 35.660156 116.449219 44.488281 C 98.503906 58.8125 89.820312 81.824219 92.714844 104.6875 L 95.609375 126.976562 C 95.898438 129.726562 94.019531 132.183594 91.269531 132.476562 C 66.230469 135.078125 46.691406 156.0625 46.691406 181.824219 C 46.691406 203.820312 61.164062 222.632812 80.992188 229 C 83.019531 229.582031 84.609375 231.316406 85.042969 233.34375 C 92.28125 263.15625 119.054688 285.152344 151.039062 285.152344 C 175.355469 285.152344 196.628906 272.417969 208.640625 253.167969 C 217.035156 239.710938 233.246094 233.34375 248.296875 238.261719 C 256.980469 241.15625 266.390625 242.605469 276.085938 242.605469 C 325.292969 242.605469 365.238281 203.097656 365.960938 154.183594 C 366.976562 105.269531 328.042969 64.3125 279.269531 62.722656 Z M 279.269531 62.722656 "/>
</clipPath>
<linearGradient id="linear0" gradientUnits="userSpaceOnUse" x1="0.00000426693" y1="95.099998" x2="220.990103" y2="95.099998" gradientTransform="matrix(1.447279,0,0,1.447172,46.691962,20.02967)">
<stop offset="0" style="stop-color:rgb(74.899292%,94.099426%,81.199646%);stop-opacity:1;"/>
<stop offset="0.0078125" style="stop-color:rgb(74.775696%,94.059753%,81.272888%);stop-opacity:1;"/>
<stop offset="0.015625" style="stop-color:rgb(74.530029%,93.978882%,81.419373%);stop-opacity:1;"/>
<stop offset="0.0234375" style="stop-color:rgb(74.284363%,93.899536%,81.565857%);stop-opacity:1;"/>
<stop offset="0.03125" style="stop-color:rgb(74.038696%,93.82019%,81.713867%);stop-opacity:1;"/>
<stop offset="0.0390625" style="stop-color:rgb(73.79303%,93.739319%,81.860352%);stop-opacity:1;"/>
<stop offset="0.046875" style="stop-color:rgb(73.547363%,93.659973%,82.006836%);stop-opacity:1;"/>
<stop offset="0.0546875" style="stop-color:rgb(73.301697%,93.580627%,82.154846%);stop-opacity:1;"/>
<stop offset="0.0625" style="stop-color:rgb(73.057556%,93.501282%,82.301331%);stop-opacity:1;"/>
<stop offset="0.0703125" style="stop-color:rgb(72.81189%,93.42041%,82.449341%);stop-opacity:1;"/>
<stop offset="0.078125" style="stop-color:rgb(72.566223%,93.341064%,82.595825%);stop-opacity:1;"/>
<stop offset="0.0859375" style="stop-color:rgb(72.320557%,93.261719%,82.74231%);stop-opacity:1;"/>
<stop offset="0.09375" style="stop-color:rgb(72.07489%,93.182373%,82.89032%);stop-opacity:1;"/>
<stop offset="0.101562" style="stop-color:rgb(71.829224%,93.101501%,83.036804%);stop-opacity:1;"/>
<stop offset="0.109375" style="stop-color:rgb(71.583557%,93.022156%,83.183289%);stop-opacity:1;"/>
<stop offset="0.117187" style="stop-color:rgb(71.337891%,92.94281%,83.331299%);stop-opacity:1;"/>
<stop offset="0.125" style="stop-color:rgb(71.092224%,92.861938%,83.477783%);stop-opacity:1;"/>
<stop offset="0.132812" style="stop-color:rgb(70.846558%,92.782593%,83.624268%);stop-opacity:1;"/>
<stop offset="0.140625" style="stop-color:rgb(70.600891%,92.703247%,83.772278%);stop-opacity:1;"/>
<stop offset="0.148437" style="stop-color:rgb(70.355225%,92.623901%,83.918762%);stop-opacity:1;"/>
<stop offset="0.15625" style="stop-color:rgb(70.109558%,92.54303%,84.065247%);stop-opacity:1;"/>
<stop offset="0.164062" style="stop-color:rgb(69.863892%,92.463684%,84.213257%);stop-opacity:1;"/>
<stop offset="0.171875" style="stop-color:rgb(69.619751%,92.384338%,84.359741%);stop-opacity:1;"/>
<stop offset="0.179687" style="stop-color:rgb(69.374084%,92.304993%,84.506226%);stop-opacity:1;"/>
<stop offset="0.1875" style="stop-color:rgb(69.128418%,92.224121%,84.654236%);stop-opacity:1;"/>
<stop offset="0.195312" style="stop-color:rgb(68.882751%,92.144775%,84.80072%);stop-opacity:1;"/>
<stop offset="0.203125" style="stop-color:rgb(68.637085%,92.06543%,84.94873%);stop-opacity:1;"/>
<stop offset="0.210937" style="stop-color:rgb(68.391418%,91.984558%,85.095215%);stop-opacity:1;"/>
<stop offset="0.21875" style="stop-color:rgb(68.145752%,91.905212%,85.241699%);stop-opacity:1;"/>
<stop offset="0.226562" style="stop-color:rgb(67.900085%,91.825867%,85.389709%);stop-opacity:1;"/>
<stop offset="0.234375" style="stop-color:rgb(67.654419%,91.746521%,85.536194%);stop-opacity:1;"/>
<stop offset="0.242187" style="stop-color:rgb(67.408752%,91.665649%,85.682678%);stop-opacity:1;"/>
<stop offset="0.25" style="stop-color:rgb(67.163086%,91.586304%,85.830688%);stop-opacity:1;"/>
<stop offset="0.257812" style="stop-color:rgb(66.917419%,91.506958%,85.977173%);stop-opacity:1;"/>
<stop offset="0.265625" style="stop-color:rgb(66.671753%,91.426086%,86.123657%);stop-opacity:1;"/>
<stop offset="0.273437" style="stop-color:rgb(66.426086%,91.346741%,86.271667%);stop-opacity:1;"/>
<stop offset="0.28125" style="stop-color:rgb(66.181946%,91.267395%,86.418152%);stop-opacity:1;"/>
<stop offset="0.289062" style="stop-color:rgb(65.936279%,91.188049%,86.564636%);stop-opacity:1;"/>
<stop offset="0.296875" style="stop-color:rgb(65.690613%,91.107178%,86.712646%);stop-opacity:1;"/>
<stop offset="0.304687" style="stop-color:rgb(65.444946%,91.027832%,86.859131%);stop-opacity:1;"/>
<stop offset="0.3125" style="stop-color:rgb(65.19928%,90.948486%,87.005615%);stop-opacity:1;"/>
<stop offset="0.320312" style="stop-color:rgb(64.953613%,90.869141%,87.153625%);stop-opacity:1;"/>
<stop offset="0.328125" style="stop-color:rgb(64.707947%,90.788269%,87.30011%);stop-opacity:1;"/>
<stop offset="0.335937" style="stop-color:rgb(64.46228%,90.708923%,87.44812%);stop-opacity:1;"/>
<stop offset="0.34375" style="stop-color:rgb(64.216614%,90.629578%,87.594604%);stop-opacity:1;"/>
<stop offset="0.351562" style="stop-color:rgb(63.970947%,90.548706%,87.741089%);stop-opacity:1;"/>
<stop offset="0.359375" style="stop-color:rgb(63.725281%,90.46936%,87.889099%);stop-opacity:1;"/>
<stop offset="0.367187" style="stop-color:rgb(63.479614%,90.390015%,88.035583%);stop-opacity:1;"/>
<stop offset="0.375" style="stop-color:rgb(63.233948%,90.310669%,88.182068%);stop-opacity:1;"/>
<stop offset="0.382812" style="stop-color:rgb(62.988281%,90.229797%,88.330078%);stop-opacity:1;"/>
<stop offset="0.390625" style="stop-color:rgb(62.744141%,90.150452%,88.476562%);stop-opacity:1;"/>
<stop offset="0.398437" style="stop-color:rgb(62.498474%,90.071106%,88.623047%);stop-opacity:1;"/>
<stop offset="0.40625" style="stop-color:rgb(62.252808%,89.99176%,88.771057%);stop-opacity:1;"/>
<stop offset="0.414062" style="stop-color:rgb(62.007141%,89.910889%,88.917542%);stop-opacity:1;"/>
<stop offset="0.421875" style="stop-color:rgb(61.761475%,89.831543%,89.064026%);stop-opacity:1;"/>
<stop offset="0.429687" style="stop-color:rgb(61.515808%,89.752197%,89.212036%);stop-opacity:1;"/>
<stop offset="0.4375" style="stop-color:rgb(61.270142%,89.671326%,89.358521%);stop-opacity:1;"/>
<stop offset="0.445312" style="stop-color:rgb(61.024475%,89.59198%,89.505005%);stop-opacity:1;"/>
<stop offset="0.453125" style="stop-color:rgb(60.778809%,89.512634%,89.653015%);stop-opacity:1;"/>
<stop offset="0.460937" style="stop-color:rgb(60.533142%,89.433289%,89.7995%);stop-opacity:1;"/>
<stop offset="0.46875" style="stop-color:rgb(60.287476%,89.352417%,89.945984%);stop-opacity:1;"/>
<stop offset="0.476562" style="stop-color:rgb(60.041809%,89.273071%,90.093994%);stop-opacity:1;"/>
<stop offset="0.484375" style="stop-color:rgb(59.796143%,89.193726%,90.240479%);stop-opacity:1;"/>
<stop offset="0.492187" style="stop-color:rgb(59.550476%,89.112854%,90.388489%);stop-opacity:1;"/>
<stop offset="0.5" style="stop-color:rgb(59.306335%,89.033508%,90.534973%);stop-opacity:1;"/>
<stop offset="0.507812" style="stop-color:rgb(59.060669%,88.954163%,90.681458%);stop-opacity:1;"/>
<stop offset="0.515625" style="stop-color:rgb(58.815002%,88.874817%,90.829468%);stop-opacity:1;"/>
<stop offset="0.523437" style="stop-color:rgb(58.569336%,88.793945%,90.975952%);stop-opacity:1;"/>
<stop offset="0.53125" style="stop-color:rgb(58.323669%,88.7146%,91.122437%);stop-opacity:1;"/>
<stop offset="0.539062" style="stop-color:rgb(58.078003%,88.635254%,91.270447%);stop-opacity:1;"/>
<stop offset="0.546875" style="stop-color:rgb(57.832336%,88.555908%,91.416931%);stop-opacity:1;"/>
<stop offset="0.554687" style="stop-color:rgb(57.58667%,88.475037%,91.563416%);stop-opacity:1;"/>
<stop offset="0.5625" style="stop-color:rgb(57.341003%,88.395691%,91.711426%);stop-opacity:1;"/>
<stop offset="0.570312" style="stop-color:rgb(57.095337%,88.316345%,91.85791%);stop-opacity:1;"/>
<stop offset="0.578125" style="stop-color:rgb(56.84967%,88.235474%,92.004395%);stop-opacity:1;"/>
<stop offset="0.585937" style="stop-color:rgb(56.604004%,88.156128%,92.152405%);stop-opacity:1;"/>
<stop offset="0.59375" style="stop-color:rgb(56.358337%,88.076782%,92.298889%);stop-opacity:1;"/>
<stop offset="0.601562" style="stop-color:rgb(56.112671%,87.997437%,92.445374%);stop-opacity:1;"/>
<stop offset="0.609375" style="stop-color:rgb(55.86853%,87.916565%,92.593384%);stop-opacity:1;"/>
<stop offset="0.617187" style="stop-color:rgb(55.622864%,87.837219%,92.739868%);stop-opacity:1;"/>
<stop offset="0.625" style="stop-color:rgb(55.377197%,87.757874%,92.887878%);stop-opacity:1;"/>
<stop offset="0.632812" style="stop-color:rgb(55.131531%,87.678528%,93.034363%);stop-opacity:1;"/>
<stop offset="0.640625" style="stop-color:rgb(54.885864%,87.597656%,93.180847%);stop-opacity:1;"/>
<stop offset="0.648437" style="stop-color:rgb(54.640198%,87.518311%,93.328857%);stop-opacity:1;"/>
<stop offset="0.65625" style="stop-color:rgb(54.394531%,87.438965%,93.475342%);stop-opacity:1;"/>
<stop offset="0.664062" style="stop-color:rgb(54.148865%,87.358093%,93.621826%);stop-opacity:1;"/>
<stop offset="0.671875" style="stop-color:rgb(53.903198%,87.278748%,93.769836%);stop-opacity:1;"/>
<stop offset="0.679687" style="stop-color:rgb(53.657532%,87.199402%,93.916321%);stop-opacity:1;"/>
<stop offset="0.6875" style="stop-color:rgb(53.411865%,87.120056%,94.062805%);stop-opacity:1;"/>
<stop offset="0.695312" style="stop-color:rgb(53.166199%,87.039185%,94.210815%);stop-opacity:1;"/>
<stop offset="0.703125" style="stop-color:rgb(52.920532%,86.959839%,94.3573%);stop-opacity:1;"/>
<stop offset="0.710937" style="stop-color:rgb(52.674866%,86.880493%,94.503784%);stop-opacity:1;"/>
<stop offset="0.71875" style="stop-color:rgb(52.430725%,86.799622%,94.651794%);stop-opacity:1;"/>
<stop offset="0.726562" style="stop-color:rgb(52.185059%,86.720276%,94.798279%);stop-opacity:1;"/>
<stop offset="0.734375" style="stop-color:rgb(51.939392%,86.64093%,94.944763%);stop-opacity:1;"/>
<stop offset="0.742187" style="stop-color:rgb(51.693726%,86.561584%,95.092773%);stop-opacity:1;"/>
<stop offset="0.75" style="stop-color:rgb(51.448059%,86.480713%,95.239258%);stop-opacity:1;"/>
<stop offset="0.757812" style="stop-color:rgb(51.202393%,86.401367%,95.387268%);stop-opacity:1;"/>
<stop offset="0.765625" style="stop-color:rgb(50.956726%,86.322021%,95.533752%);stop-opacity:1;"/>
<stop offset="0.773437" style="stop-color:rgb(50.71106%,86.242676%,95.680237%);stop-opacity:1;"/>
<stop offset="0.78125" style="stop-color:rgb(50.465393%,86.161804%,95.828247%);stop-opacity:1;"/>
<stop offset="0.789062" style="stop-color:rgb(50.219727%,86.082458%,95.974731%);stop-opacity:1;"/>
<stop offset="0.796875" style="stop-color:rgb(49.97406%,86.003113%,96.121216%);stop-opacity:1;"/>
<stop offset="0.804687" style="stop-color:rgb(49.728394%,85.922241%,96.269226%);stop-opacity:1;"/>
<stop offset="0.8125" style="stop-color:rgb(49.482727%,85.842896%,96.41571%);stop-opacity:1;"/>
<stop offset="0.820312" style="stop-color:rgb(49.237061%,85.76355%,96.562195%);stop-opacity:1;"/>
<stop offset="0.828125" style="stop-color:rgb(48.99292%,85.684204%,96.710205%);stop-opacity:1;"/>
<stop offset="0.835937" style="stop-color:rgb(48.747253%,85.603333%,96.856689%);stop-opacity:1;"/>
<stop offset="0.84375" style="stop-color:rgb(48.501587%,85.523987%,97.003174%);stop-opacity:1;"/>
<stop offset="0.851562" style="stop-color:rgb(48.25592%,85.444641%,97.151184%);stop-opacity:1;"/>
<stop offset="0.859375" style="stop-color:rgb(48.010254%,85.365295%,97.297668%);stop-opacity:1;"/>
<stop offset="0.867187" style="stop-color:rgb(47.764587%,85.284424%,97.444153%);stop-opacity:1;"/>
<stop offset="0.875" style="stop-color:rgb(47.518921%,85.205078%,97.592163%);stop-opacity:1;"/>
<stop offset="0.882812" style="stop-color:rgb(47.273254%,85.125732%,97.738647%);stop-opacity:1;"/>
<stop offset="0.890625" style="stop-color:rgb(47.027588%,85.044861%,97.886658%);stop-opacity:1;"/>
<stop offset="0.898437" style="stop-color:rgb(46.781921%,84.965515%,98.033142%);stop-opacity:1;"/>
<stop offset="0.90625" style="stop-color:rgb(46.536255%,84.886169%,98.179626%);stop-opacity:1;"/>
<stop offset="0.914062" style="stop-color:rgb(46.290588%,84.806824%,98.327637%);stop-opacity:1;"/>
<stop offset="0.921875" style="stop-color:rgb(46.044922%,84.725952%,98.474121%);stop-opacity:1;"/>
<stop offset="0.929687" style="stop-color:rgb(45.799255%,84.646606%,98.620605%);stop-opacity:1;"/>
<stop offset="0.9375" style="stop-color:rgb(45.555115%,84.567261%,98.768616%);stop-opacity:1;"/>
<stop offset="0.945312" style="stop-color:rgb(45.309448%,84.486389%,98.9151%);stop-opacity:1;"/>
<stop offset="0.953125" style="stop-color:rgb(45.063782%,84.407043%,99.061584%);stop-opacity:1;"/>
<stop offset="0.960937" style="stop-color:rgb(44.818115%,84.327698%,99.209595%);stop-opacity:1;"/>
<stop offset="0.96875" style="stop-color:rgb(44.572449%,84.248352%,99.356079%);stop-opacity:1;"/>
<stop offset="0.976562" style="stop-color:rgb(44.326782%,84.16748%,99.502563%);stop-opacity:1;"/>
<stop offset="0.984375" style="stop-color:rgb(44.081116%,84.088135%,99.650574%);stop-opacity:1;"/>
<stop offset="0.992187" style="stop-color:rgb(43.835449%,84.008789%,99.797058%);stop-opacity:1;"/>
<stop offset="1" style="stop-color:rgb(43.606567%,83.934021%,99.934387%);stop-opacity:1;"/>
</linearGradient>
<clipPath id="clip3">
  <path d="M 229 257 L 263 257 L 263 290.652344 L 229 290.652344 Z M 229 257 "/>
</clipPath>
<clipPath id="clip4">
  <path d="M 262.914062 274.007812 C 262.914062 274.546875 262.890625 275.085938 262.835938 275.625 C 262.78125 276.164062 262.703125 276.695312 262.597656 277.226562 C 262.492188 277.757812 262.363281 278.28125 262.203125 278.796875 C 262.046875 279.3125 261.867188 279.824219 261.660156 280.320312 C 261.453125 280.820312 261.222656 281.308594 260.96875 281.785156 C 260.710938 282.261719 260.433594 282.726562 260.136719 283.175781 C 259.835938 283.625 259.511719 284.058594 259.171875 284.472656 C 258.828125 284.890625 258.464844 285.292969 258.082031 285.675781 C 257.699219 286.054688 257.300781 286.417969 256.882812 286.761719 C 256.464844 287.105469 256.03125 287.425781 255.582031 287.726562 C 255.132812 288.027344 254.671875 288.304688 254.195312 288.558594 C 253.71875 288.8125 253.230469 289.042969 252.730469 289.25 C 252.230469 289.457031 251.722656 289.640625 251.207031 289.796875 C 250.6875 289.953125 250.164062 290.082031 249.636719 290.1875 C 249.105469 290.292969 248.570312 290.375 248.035156 290.425781 C 247.496094 290.480469 246.957031 290.507812 246.417969 290.507812 C 245.875 290.507812 245.335938 290.480469 244.800781 290.425781 C 244.261719 290.375 243.726562 290.292969 243.199219 290.1875 C 242.667969 290.082031 242.144531 289.953125 241.628906 289.796875 C 241.109375 289.640625 240.601562 289.457031 240.101562 289.25 C 239.601562 289.042969 239.117188 288.8125 238.640625 288.558594 C 238.164062 288.304688 237.699219 288.027344 237.25 287.726562 C 236.800781 287.425781 236.367188 287.105469 235.949219 286.761719 C 235.53125 286.417969 235.132812 286.054688 234.75 285.675781 C 234.367188 285.292969 234.003906 284.890625 233.664062 284.472656 C 233.320312 284.058594 233 283.625 232.699219 283.175781 C 232.398438 282.726562 232.121094 282.261719 231.867188 281.785156 C 231.609375 281.308594 231.378906 280.820312 231.171875 280.320312 C 230.964844 279.824219 230.785156 279.3125 230.628906 278.796875 C 230.472656 278.28125 230.339844 277.757812 230.234375 277.226562 C 230.128906 276.695312 230.050781 276.164062 229.996094 275.625 C 229.945312 275.085938 229.917969 274.546875 229.917969 274.007812 C 229.917969 273.46875 229.945312 272.929688 229.996094 272.390625 C 230.050781 271.855469 230.128906 271.320312 230.234375 270.789062 C 230.339844 270.261719 230.472656 269.734375 230.628906 269.21875 C 230.785156 268.703125 230.964844 268.195312 231.171875 267.695312 C 231.378906 267.195312 231.609375 266.707031 231.867188 266.230469 C 232.121094 265.753906 232.398438 265.292969 232.699219 264.84375 C 233 264.394531 233.320312 263.960938 233.664062 263.542969 C 234.003906 263.125 234.367188 262.726562 234.75 262.34375 C 235.132812 261.960938 235.53125 261.597656 235.949219 261.253906 C 236.367188 260.914062 236.800781 260.589844 237.25 260.289062 C 237.699219 259.992188 238.164062 259.714844 238.640625 259.457031 C 239.117188 259.203125 239.601562 258.972656 240.101562 258.765625 C 240.601562 258.558594 241.109375 258.378906 241.628906 258.222656 C 242.144531 258.0625 242.667969 257.933594 243.199219 257.828125 C 243.726562 257.722656 244.261719 257.644531 244.800781 257.589844 C 245.335938 257.535156 245.875 257.511719 246.417969 257.511719 C 246.957031 257.511719 247.496094 257.535156 248.035156 257.589844 C 248.570312 257.644531 249.105469 257.722656 249.636719 257.828125 C 250.164062 257.933594 250.6875 258.0625 251.207031 258.222656 C 251.722656 258.378906 252.230469 258.558594 252.730469 258.765625 C 253.230469 258.972656 253.71875 259.203125 254.195312 259.457031 C 254.671875 259.714844 255.132812 259.992188 255.582031 260.289062 C 256.03125 260.589844 256.464844 260.914062 256.882812 261.253906 C 257.300781 261.597656 257.699219 261.960938 258.082031 262.34375 C 258.464844 262.726562 258.828125 263.125 259.171875 263.542969 C 259.511719 263.960938 259.835938 264.394531 260.136719 264.84375 C 260.433594 265.292969 260.710938 265.753906 260.96875 266.230469 C 261.222656 266.707031 261.453125 267.195312 261.660156 267.695312 C 261.867188 268.195312 262.046875 268.703125 262.203125 269.21875 C 262.363281 269.734375 262.492188 270.261719 262.597656 270.789062 C 262.703125 271.320312 262.78125 271.855469 262.835938 272.390625 C 262.890625 272.929688 262.914062 273.46875 262.914062 274.007812 Z M 262.914062 274.007812 "/>
</clipPath>
<linearGradient id="linear1" gradientUnits="userSpaceOnUse" x1="126.599998" y1="95.099998" x2="149.399994" y2="95.099998" gradientTransform="matrix(1.447279,0,0,1.447172,46.691962,20.02967)">
<stop offset="0" style="stop-color:rgb(56.892395%,88.250732%,91.97998%);stop-opacity:1;"/>
<stop offset="0.0625" style="stop-color:rgb(56.791687%,88.217163%,92.041016%);stop-opacity:1;"/>
<stop offset="0.125" style="stop-color:rgb(56.588745%,88.150024%,92.16156%);stop-opacity:1;"/>
<stop offset="0.1875" style="stop-color:rgb(56.385803%,88.084412%,92.28363%);stop-opacity:1;"/>
<stop offset="0.25" style="stop-color:rgb(56.182861%,88.018799%,92.404175%);stop-opacity:1;"/>
<stop offset="0.3125" style="stop-color:rgb(55.979919%,87.953186%,92.526245%);stop-opacity:1;"/>
<stop offset="0.375" style="stop-color:rgb(55.776978%,87.887573%,92.64679%);stop-opacity:1;"/>
<stop offset="0.4375" style="stop-color:rgb(55.575562%,87.82196%,92.76886%);stop-opacity:1;"/>
<stop offset="0.5" style="stop-color:rgb(55.37262%,87.756348%,92.889404%);stop-opacity:1;"/>
<stop offset="0.5625" style="stop-color:rgb(55.169678%,87.689209%,93.011475%);stop-opacity:1;"/>
<stop offset="0.625" style="stop-color:rgb(54.966736%,87.623596%,93.132019%);stop-opacity:1;"/>
<stop offset="0.6875" style="stop-color:rgb(54.763794%,87.557983%,93.254089%);stop-opacity:1;"/>
<stop offset="0.75" style="stop-color:rgb(54.560852%,87.492371%,93.374634%);stop-opacity:1;"/>
<stop offset="0.8125" style="stop-color:rgb(54.359436%,87.426758%,93.496704%);stop-opacity:1;"/>
<stop offset="0.875" style="stop-color:rgb(54.156494%,87.361145%,93.617249%);stop-opacity:1;"/>
<stop offset="0.9375" style="stop-color:rgb(53.953552%,87.295532%,93.739319%);stop-opacity:1;"/>
<stop offset="1" style="stop-color:rgb(53.75061%,87.228394%,93.859863%);stop-opacity:1;"/>
</linearGradient>
<clipPath id="clip5">
  <path d="M 221 20.03125 L 255 20.03125 L 255 53 L 221 53 Z M 221 20.03125 "/>
</clipPath>
<clipPath id="clip6">
  <path d="M 254.375 36.382812 C 254.375 36.917969 254.351562 37.453125 254.296875 37.984375 C 254.246094 38.519531 254.167969 39.046875 254.0625 39.574219 C 253.957031 40.097656 253.828125 40.617188 253.671875 41.128906 C 253.515625 41.640625 253.335938 42.144531 253.132812 42.640625 C 252.925781 43.136719 252.699219 43.621094 252.445312 44.089844 C 252.191406 44.5625 251.917969 45.023438 251.621094 45.46875 C 251.324219 45.914062 251.003906 46.34375 250.664062 46.757812 C 250.324219 47.171875 249.964844 47.566406 249.585938 47.945312 C 249.207031 48.324219 248.8125 48.683594 248.398438 49.023438 C 247.984375 49.363281 247.554688 49.683594 247.109375 49.980469 C 246.664062 50.277344 246.203125 50.550781 245.730469 50.804688 C 245.257812 51.058594 244.777344 51.285156 244.28125 51.492188 C 243.785156 51.695312 243.28125 51.875 242.769531 52.03125 C 242.257812 52.1875 241.738281 52.316406 241.210938 52.421875 C 240.6875 52.527344 240.160156 52.605469 239.625 52.65625 C 239.09375 52.710938 238.558594 52.734375 238.023438 52.734375 C 237.488281 52.734375 236.953125 52.710938 236.417969 52.65625 C 235.886719 52.605469 235.355469 52.527344 234.832031 52.421875 C 234.304688 52.316406 233.789062 52.1875 233.273438 52.03125 C 232.761719 51.875 232.257812 51.695312 231.765625 51.492188 C 231.269531 51.285156 230.785156 51.058594 230.3125 50.804688 C 229.839844 50.550781 229.382812 50.277344 228.9375 49.980469 C 228.492188 49.683594 228.0625 49.363281 227.648438 49.023438 C 227.234375 48.683594 226.835938 48.324219 226.457031 47.945312 C 226.078125 47.566406 225.71875 47.171875 225.378906 46.757812 C 225.039062 46.34375 224.722656 45.914062 224.425781 45.46875 C 224.125 45.023438 223.851562 44.5625 223.597656 44.089844 C 223.347656 43.617188 223.117188 43.136719 222.914062 42.640625 C 222.707031 42.144531 222.527344 41.640625 222.371094 41.128906 C 222.214844 40.617188 222.085938 40.097656 221.980469 39.574219 C 221.878906 39.046875 221.800781 38.519531 221.746094 37.984375 C 221.695312 37.453125 221.667969 36.917969 221.667969 36.382812 C 221.667969 35.847656 221.695312 35.3125 221.746094 34.78125 C 221.800781 34.246094 221.878906 33.71875 221.980469 33.191406 C 222.085938 32.667969 222.214844 32.148438 222.371094 31.636719 C 222.527344 31.125 222.707031 30.621094 222.914062 30.125 C 223.117188 29.628906 223.347656 29.144531 223.597656 28.675781 C 223.851562 28.203125 224.125 27.742188 224.425781 27.296875 C 224.722656 26.851562 225.039062 26.421875 225.378906 26.007812 C 225.71875 25.59375 226.078125 25.199219 226.457031 24.820312 C 226.835938 24.441406 227.234375 24.082031 227.648438 23.742188 C 228.0625 23.402344 228.492188 23.082031 228.9375 22.785156 C 229.382812 22.488281 229.839844 22.214844 230.3125 21.960938 C 230.785156 21.707031 231.269531 21.480469 231.765625 21.273438 C 232.257812 21.070312 232.761719 20.890625 233.273438 20.734375 C 233.789062 20.578125 234.304688 20.449219 234.832031 20.34375 C 235.355469 20.238281 235.886719 20.160156 236.417969 20.109375 C 236.953125 20.054688 237.488281 20.03125 238.023438 20.03125 C 238.558594 20.03125 239.09375 20.054688 239.625 20.109375 C 240.160156 20.160156 240.6875 20.238281 241.210938 20.34375 C 241.738281 20.449219 242.257812 20.578125 242.769531 20.734375 C 243.28125 20.890625 243.785156 21.070312 244.28125 21.273438 C 244.777344 21.480469 245.257812 21.707031 245.730469 21.960938 C 246.203125 22.214844 246.664062 22.488281 247.109375 22.785156 C 247.554688 23.082031 247.984375 23.402344 248.398438 23.742188 C 248.8125 24.082031 249.207031 24.441406 249.585938 24.820312 C 249.964844 25.199219 250.324219 25.59375 250.664062 26.007812 C 251.003906 26.421875 251.324219 26.851562 251.621094 27.296875 C 251.917969 27.742188 252.191406 28.203125 252.445312 28.675781 C 252.699219 29.144531 252.925781 29.628906 253.132812 30.125 C 253.335938 30.621094 253.515625 31.125 253.671875 31.636719 C 253.828125 32.148438 253.957031 32.667969 254.0625 33.191406 C 254.167969 33.71875 254.246094 34.246094 254.296875 34.78125 C 254.351562 35.3125 254.375 35.847656 254.375 36.382812 Z M 254.375 36.382812 "/>
</clipPath>
<linearGradient id="linear2" gradientUnits="userSpaceOnUse" x1="120.899994" y1="95.099998" x2="143.5" y2="95.099998" gradientTransform="matrix(1.447279,0,0,1.447172,46.691962,20.02967)">
<stop offset="0" style="stop-color:rgb(57.704163%,88.513184%,91.494751%);stop-opacity:1;"/>
<stop offset="0.0625" style="stop-color:rgb(57.603455%,88.479614%,91.55426%);stop-opacity:1;"/>
<stop offset="0.125" style="stop-color:rgb(57.402039%,88.415527%,91.674805%);stop-opacity:1;"/>
<stop offset="0.1875" style="stop-color:rgb(57.200623%,88.349915%,91.795349%);stop-opacity:1;"/>
<stop offset="0.25" style="stop-color:rgb(57.000732%,88.284302%,91.914368%);stop-opacity:1;"/>
<stop offset="0.3125" style="stop-color:rgb(56.799316%,88.218689%,92.034912%);stop-opacity:1;"/>
<stop offset="0.375" style="stop-color:rgb(56.5979%,88.154602%,92.155457%);stop-opacity:1;"/>
<stop offset="0.4375" style="stop-color:rgb(56.39801%,88.088989%,92.276001%);stop-opacity:1;"/>
<stop offset="0.5" style="stop-color:rgb(56.196594%,88.023376%,92.396545%);stop-opacity:1;"/>
<stop offset="0.5625" style="stop-color:rgb(55.995178%,87.957764%,92.51709%);stop-opacity:1;"/>
<stop offset="0.625" style="stop-color:rgb(55.795288%,87.892151%,92.636108%);stop-opacity:1;"/>
<stop offset="0.6875" style="stop-color:rgb(55.593872%,87.828064%,92.756653%);stop-opacity:1;"/>
<stop offset="0.75" style="stop-color:rgb(55.392456%,87.762451%,92.877197%);stop-opacity:1;"/>
<stop offset="0.8125" style="stop-color:rgb(55.192566%,87.696838%,92.997742%);stop-opacity:1;"/>
<stop offset="0.875" style="stop-color:rgb(54.99115%,87.631226%,93.118286%);stop-opacity:1;"/>
<stop offset="0.9375" style="stop-color:rgb(54.789734%,87.567139%,93.238831%);stop-opacity:1;"/>
<stop offset="1" style="stop-color:rgb(54.589844%,87.501526%,93.357849%);stop-opacity:1;"/>
</linearGradient>
<clipPath id="clip7">
  <path d="M 53 108 L 75 108 L 75 131 L 53 131 Z M 53 108 "/>
</clipPath>
<clipPath id="clip8">
  <path d="M 74.769531 119.449219 C 74.769531 120.144531 74.703125 120.832031 74.566406 121.511719 C 74.429688 122.191406 74.230469 122.851562 73.964844 123.492188 C 73.699219 124.132812 73.375 124.742188 72.988281 125.320312 C 72.601562 125.894531 72.164062 126.429688 71.675781 126.921875 C 71.183594 127.410156 70.652344 127.847656 70.074219 128.234375 C 69.496094 128.621094 68.886719 128.945312 68.246094 129.210938 C 67.605469 129.476562 66.945312 129.675781 66.265625 129.8125 C 65.585938 129.945312 64.898438 130.015625 64.203125 130.015625 C 63.511719 130.015625 62.824219 129.945312 62.144531 129.8125 C 61.460938 129.675781 60.800781 129.476562 60.160156 129.210938 C 59.519531 128.945312 58.910156 128.621094 58.335938 128.234375 C 57.757812 127.847656 57.222656 127.410156 56.734375 126.921875 C 56.242188 126.429688 55.804688 125.894531 55.417969 125.320312 C 55.035156 124.742188 54.707031 124.132812 54.441406 123.492188 C 54.175781 122.851562 53.976562 122.191406 53.84375 121.511719 C 53.707031 120.832031 53.640625 120.144531 53.640625 119.449219 C 53.640625 118.757812 53.707031 118.070312 53.84375 117.390625 C 53.976562 116.710938 54.175781 116.046875 54.441406 115.40625 C 54.707031 114.765625 55.035156 114.15625 55.417969 113.582031 C 55.804688 113.003906 56.242188 112.472656 56.734375 111.980469 C 57.222656 111.488281 57.757812 111.050781 58.335938 110.667969 C 58.910156 110.28125 59.519531 109.957031 60.160156 109.691406 C 60.800781 109.425781 61.460938 109.222656 62.144531 109.089844 C 62.824219 108.953125 63.511719 108.886719 64.203125 108.886719 C 64.898438 108.886719 65.585938 108.953125 66.265625 109.089844 C 66.945312 109.222656 67.605469 109.425781 68.246094 109.691406 C 68.886719 109.957031 69.496094 110.28125 70.074219 110.667969 C 70.652344 111.050781 71.183594 111.488281 71.675781 111.980469 C 72.164062 112.472656 72.601562 113.003906 72.988281 113.582031 C 73.375 114.15625 73.699219 114.765625 73.964844 115.40625 C 74.230469 116.046875 74.429688 116.710938 74.566406 117.390625 C 74.703125 118.070312 74.769531 118.757812 74.769531 119.449219 Z M 74.769531 119.449219 "/>
</clipPath>
<linearGradient id="linear3" gradientUnits="userSpaceOnUse" x1="4.800001" y1="95.099998" x2="19.400002" y2="95.099998" gradientTransform="matrix(1.447279,0,0,1.447172,46.691962,20.02967)">
<stop offset="0" style="stop-color:rgb(74.217224%,93.878174%,81.608582%);stop-opacity:1;"/>
<stop offset="0.125" style="stop-color:rgb(74.085999%,93.835449%,81.684875%);stop-opacity:1;"/>
<stop offset="0.25" style="stop-color:rgb(73.826599%,93.75%,81.840515%);stop-opacity:1;"/>
<stop offset="0.375" style="stop-color:rgb(73.5672%,93.666077%,81.996155%);stop-opacity:1;"/>
<stop offset="0.5" style="stop-color:rgb(73.3078%,93.582153%,82.151794%);stop-opacity:1;"/>
<stop offset="0.625" style="stop-color:rgb(73.048401%,93.49823%,82.307434%);stop-opacity:1;"/>
<stop offset="0.75" style="stop-color:rgb(72.789001%,93.412781%,82.463074%);stop-opacity:1;"/>
<stop offset="0.875" style="stop-color:rgb(72.529602%,93.328857%,82.618713%);stop-opacity:1;"/>
<stop offset="1" style="stop-color:rgb(72.270203%,93.244934%,82.772827%);stop-opacity:1;"/>
</linearGradient>
</defs>
<g id="surface1">
<g clip-path="url(#clip1)" clip-rule="nonzero">
<g clip-path="url(#clip2)" clip-rule="nonzero">
<path style=" stroke:none;fill-rule:nonzero;fill:url(#linear0);" d="M 46.691406 30.304688 L 46.691406 285.152344 L 366.527344 285.152344 L 366.527344 30.304688 Z M 46.691406 30.304688 "/>
</g>
</g>
<g clip-path="url(#clip3)" clip-rule="nonzero">
<g clip-path="url(#clip4)" clip-rule="nonzero">
<path style=" stroke:none;fill-rule:nonzero;fill:url(#linear1);" d="M 229.917969 257.511719 L 229.917969 290.507812 L 262.914062 290.507812 L 262.914062 257.511719 Z M 229.917969 257.511719 "/>
</g>
</g>
<g clip-path="url(#clip5)" clip-rule="nonzero">
<g clip-path="url(#clip6)" clip-rule="nonzero">
<path style=" stroke:none;fill-rule:nonzero;fill:url(#linear2);" d="M 221.667969 20.03125 L 221.667969 52.734375 L 254.375 52.734375 L 254.375 20.03125 Z M 221.667969 20.03125 "/>
</g>
</g>
<g clip-path="url(#clip7)" clip-rule="nonzero">
<g clip-path="url(#clip8)" clip-rule="nonzero">
<path style=" stroke:none;fill-rule:nonzero;fill:url(#linear3);" d="M 53.640625 108.886719 L 53.640625 130.015625 L 74.769531 130.015625 L 74.769531 108.886719 Z M 53.640625 108.886719 "/>
</g>
</g>
<path style=" stroke:none;fill-rule:nonzero;fill:rgb(12.939453%,17.649841%,38.038635%);fill-opacity:1;" d="M 7.425781 183.414062 C 15.253906 175.515625 24.625 170.207031 35.0625 167.523438 C 35.308594 167.414062 35.5625 167.324219 35.835938 167.28125 C 35.917969 167.269531 35.992188 167.277344 36.074219 167.269531 C 51.660156 163.542969 69.566406 165.621094 88.242188 173.695312 C 88.984375 174.015625 89.851562 173.753906 90.261719 173.082031 C 99.519531 157.949219 109.171875 144.910156 119.195312 133.972656 C 117.152344 129.804688 110.765625 118.777344 97.558594 111.441406 C 94.464844 109.722656 92.539062 106.574219 92.410156 103.023438 C 92.277344 99.378906 94.023438 96.007812 97.082031 94.003906 C 137.460938 67.570312 169.089844 90.078125 176.003906 95.773438 C 180.296875 94.488281 184.636719 93.515625 189.023438 92.863281 C 232.625 86.367188 268.507812 113.378906 281.917969 125.289062 C 285.945312 128.863281 288.058594 134.191406 287.574219 139.535156 C 285.820312 158.867188 276.4375 205.664062 227.601562 225.363281 C 224.578125 237.585938 219.613281 250.671875 211.515625 262.734375 C 209.375 265.921875 205.921875 267.734375 202.183594 267.734375 C 201.503906 267.734375 200.8125 267.675781 200.117188 267.550781 C 195.609375 266.753906 192.136719 263.515625 191.054688 259.101562 C 189.15625 251.382812 186.257812 242.523438 182.523438 234.234375 C 164.6875 234.886719 144.601562 232.910156 122.769531 228.300781 C 122.113281 228.167969 121.652344 228.445312 121.433594 228.625 C 121.214844 228.800781 120.855469 229.199219 120.863281 229.851562 C 121.042969 244.238281 117.078125 279.695312 76.480469 298.109375 C 75.398438 298.597656 74.261719 298.828125 73.140625 298.828125 C 70.390625 298.828125 67.726562 297.421875 66.222656 294.9375 C 51.628906 270.84375 53.28125 249.277344 57.242188 235.429688 C 57.800781 233.46875 56.644531 231.410156 54.664062 230.84375 C 43.222656 227.5625 21.726562 218.328125 6.316406 193.328125 C 4.347656 190.136719 4.804688 186.058594 7.425781 183.414062 Z M 7.425781 183.414062 "/>
<path style=" stroke:none;fill-rule:nonzero;fill:rgb(83.529663%,27.449036%,40.779114%);fill-opacity:1;" d="M 100.4375 99.128906 C 99.1875 99.945312 98.476562 101.316406 98.53125 102.800781 C 98.582031 104.210938 99.3125 105.410156 100.53125 106.085938 C 113.546875 113.316406 120.558594 123.570312 123.667969 129.265625 C 138.082031 114.59375 153.230469 104.183594 169.035156 98.136719 C 159.292969 91.285156 133.164062 77.699219 100.4375 99.128906 Z M 100.4375 99.128906 "/>
<path style=" stroke:none;fill-rule:nonzero;fill:rgb(98.429871%,29.40979%,45.878601%);fill-opacity:1;" d="M 114.738281 229.925781 C 114.714844 228.179688 115.28125 226.519531 116.316406 225.167969 C 112.160156 222.488281 106.332031 217.632812 99.945312 208.964844 C 98.941406 207.605469 99.230469 205.6875 100.59375 204.683594 C 101.953125 203.679688 103.871094 203.972656 104.875 205.332031 C 115.203125 219.347656 123.519531 222.140625 124.132812 222.328125 C 144.335938 226.585938 162.9375 228.539062 179.585938 228.195312 C 175.140625 219.714844 169.78125 212.382812 163.707031 208.3125 C 162.300781 207.371094 161.925781 205.46875 162.867188 204.066406 C 163.808594 202.660156 165.710938 202.285156 167.113281 203.226562 C 175.023438 208.523438 181.765625 218.488281 187.027344 229.523438 C 187.152344 229.71875 187.25 229.929688 187.328125 230.152344 C 191.625 239.300781 194.914062 249.140625 197 257.644531 C 197.503906 259.699219 199.070312 261.148438 201.183594 261.523438 C 203.300781 261.902344 205.257812 261.074219 206.429688 259.324219 C 227.265625 228.28125 226.234375 188.726562 225.714844 179.945312 C 221.792969 178.59375 210.0625 176.292969 191.738281 187.683594 C 190.300781 188.578125 188.414062 188.136719 187.523438 186.699219 C 186.628906 185.261719 187.070312 183.375 188.503906 182.480469 C 214.183594 166.519531 229.5 174.835938 230.136719 175.199219 L 231.519531 175.980469 L 231.675781 177.554688 C 231.796875 178.742188 233.429688 196.230469 229.222656 218.011719 C 271.53125 198.695312 279.871094 156.65625 281.472656 138.980469 C 281.785156 135.566406 280.429688 132.15625 277.851562 129.867188 C 265.085938 118.527344 230.964844 92.808594 189.921875 98.917969 C 155.527344 104.039062 123.753906 130.066406 95.484375 176.277344 C 93.492188 179.535156 89.335938 180.835938 85.8125 179.316406 C 69.433594 172.234375 53.761719 170.085938 40.015625 172.722656 C 41.941406 179.757812 48.714844 197.980469 68.949219 208.40625 C 76.03125 212.058594 80.488281 219.171875 80.578125 226.976562 C 80.730469 240.070312 82.847656 256.140625 96.871094 276.636719 C 112.890625 259.894531 114.859375 239.65625 114.738281 229.925781 Z M 114.738281 229.925781 "/>
<path style=" stroke:none;fill-rule:nonzero;fill:rgb(100%,100%,100%);fill-opacity:1;" d="M 11.527344 190.113281 C 25.855469 213.359375 45.761719 221.921875 56.351562 224.957031 C 61.574219 226.453125 64.617188 231.90625 63.128906 237.113281 C 59.503906 249.789062 58.007812 269.5625 71.460938 291.765625 C 71.964844 292.597656 73.054688 292.933594 73.949219 292.53125 C 81.339844 289.179688 87.390625 285.210938 92.375 280.90625 C 76.828125 258.519531 74.609375 240.417969 74.457031 227.046875 C 74.390625 221.515625 71.207031 216.460938 66.140625 213.851562 C 43.589844 202.226562 36.1875 182.222656 34.054688 174.214844 C 25.671875 176.792969 18.140625 181.300781 11.777344 187.722656 C 11.160156 188.34375 11.054688 189.351562 11.527344 190.113281 Z M 11.527344 190.113281 "/>
<path style=" stroke:none;fill-rule:nonzero;fill:rgb(12.939453%,17.649841%,38.038635%);fill-opacity:1;" d="M 233.640625 127.113281 C 240.390625 123.050781 249.042969 126.511719 249.40625 126.660156 C 250.96875 127.300781 251.71875 129.089844 251.078125 130.65625 C 250.441406 132.21875 248.65625 132.96875 247.085938 132.328125 C 247.023438 132.300781 240.878906 129.902344 236.800781 132.359375 C 234.503906 133.742188 233.128906 136.597656 232.710938 140.84375 C 232.550781 142.425781 231.222656 143.605469 229.664062 143.605469 C 229.566406 143.605469 229.464844 143.601562 229.363281 143.589844 C 227.679688 143.425781 226.449219 141.925781 226.613281 140.242188 C 227.234375 133.964844 229.597656 129.546875 233.640625 127.113281 Z M 233.640625 127.113281 "/>
<path style=" stroke:none;fill-rule:nonzero;fill:rgb(12.939453%,17.649841%,38.038635%);fill-opacity:1;" d="M 144.71875 135.214844 C 145.992188 134.101562 147.921875 134.230469 149.039062 135.503906 C 150.152344 136.773438 150.023438 138.707031 148.75 139.824219 C 135.027344 151.832031 123.488281 166.109375 114.453125 182.261719 C 113.890625 183.261719 112.851562 183.828125 111.777344 183.828125 C 111.273438 183.828125 110.757812 183.703125 110.285156 183.4375 C 108.808594 182.613281 108.285156 180.746094 109.109375 179.269531 C 118.488281 162.507812 130.46875 147.683594 144.71875 135.214844 Z M 144.71875 135.214844 "/>
<path style=" stroke:none;fill-rule:nonzero;fill:rgb(12.939453%,17.649841%,38.038635%);fill-opacity:1;" d="M 163.976562 120.785156 C 172.757812 115.234375 178.636719 112.839844 178.882812 112.742188 C 180.445312 112.113281 182.230469 112.871094 182.863281 114.4375 C 183.496094 116.003906 182.738281 117.789062 181.171875 118.421875 C 181.117188 118.445312 175.511719 120.734375 167.246094 125.964844 C 166.742188 126.285156 166.171875 126.4375 165.613281 126.4375 C 164.601562 126.4375 163.605469 125.933594 163.023438 125.011719 C 162.121094 123.582031 162.546875 121.691406 163.976562 120.785156 Z M 163.976562 120.785156 "/>
</g>
</svg>
