<?xml version="1.0" encoding="UTF-8"?>
<svg xmlns="http://www.w3.org/2000/svg" xmlns:xlink="http://www.w3.org/1999/xlink" width="375pt" height="262.499992pt" viewBox="0 0 375 262.499992" version="1.2">
<defs>
<clipPath id="clip1">
  <path d="M 0.355469 0 L 358.175781 0 L 358.175781 262 L 0.355469 262 Z M 0.355469 0 "/>
</clipPath>
</defs>
<g id="surface1">
<path style=" stroke:none;fill-rule:nonzero;fill:rgb(80.389404%,93.328857%,96.469116%);fill-opacity:1;" d="M 352.152344 256.046875 L 6.519531 256.046875 L 6.519531 5.953125 L 352.152344 5.953125 L 352.152344 256.046875 "/>
<path style=" stroke:none;fill-rule:nonzero;fill:rgb(48.629761%,72.158813%,92.158508%);fill-opacity:1;" d="M 352.152344 65.5 L 6.519531 65.5 L 6.519531 5.953125 L 352.152344 5.953125 L 352.152344 65.5 "/>
<path style=" stroke:none;fill-rule:nonzero;fill:rgb(48.629761%,72.158813%,92.158508%);fill-opacity:1;" d="M 125.703125 148.863281 L 42.273438 148.863281 L 42.273438 89.320312 L 125.703125 89.320312 L 125.703125 148.863281 "/>
<path style=" stroke:none;fill-rule:nonzero;fill:rgb(30.979919%,51.368713%,81.959534%);fill-opacity:1;" d="M 185.296875 95.273438 L 149.539062 95.273438 C 146.257812 95.273438 143.582031 92.597656 143.582031 89.320312 C 143.582031 86.039062 146.257812 83.363281 149.539062 83.363281 L 185.296875 83.363281 C 188.578125 83.363281 191.253906 86.039062 191.253906 89.320312 C 191.253906 92.597656 188.578125 95.273438 185.296875 95.273438 "/>
<path style=" stroke:none;fill-rule:nonzero;fill:rgb(30.979919%,51.368713%,81.959534%);fill-opacity:1;" d="M 185.296875 119.089844 L 149.539062 119.089844 C 146.257812 119.089844 143.582031 116.417969 143.582031 113.136719 C 143.582031 109.855469 146.257812 107.183594 149.539062 107.183594 L 185.296875 107.183594 C 188.578125 107.183594 191.253906 109.855469 191.253906 113.136719 C 191.253906 116.417969 188.578125 119.089844 185.296875 119.089844 "/>
<path style=" stroke:none;fill-rule:nonzero;fill:rgb(48.629761%,72.158813%,92.158508%);fill-opacity:1;" d="M 125.703125 232.226562 L 42.273438 232.226562 L 42.273438 172.683594 L 125.703125 172.683594 L 125.703125 232.226562 "/>
<path style=" stroke:none;fill-rule:nonzero;fill:rgb(30.979919%,51.368713%,81.959534%);fill-opacity:1;" d="M 185.296875 178.636719 L 149.539062 178.636719 C 146.257812 178.636719 143.582031 175.960938 143.582031 172.683594 C 143.582031 169.402344 146.257812 166.726562 149.539062 166.726562 L 185.296875 166.726562 C 188.578125 166.726562 191.253906 169.402344 191.253906 172.683594 C 191.253906 175.960938 188.578125 178.636719 185.296875 178.636719 "/>
<path style=" stroke:none;fill-rule:nonzero;fill:rgb(30.979919%,51.368713%,81.959534%);fill-opacity:1;" d="M 185.296875 202.457031 L 149.539062 202.457031 C 146.257812 202.457031 143.582031 199.78125 143.582031 196.5 C 143.582031 193.222656 146.257812 190.546875 149.539062 190.546875 L 185.296875 190.546875 C 188.578125 190.546875 191.253906 193.222656 191.253906 196.5 C 191.253906 199.78125 188.578125 202.457031 185.296875 202.457031 "/>
<path style=" stroke:none;fill-rule:nonzero;fill:rgb(30.979919%,51.368713%,81.959534%);fill-opacity:1;" d="M 256.804688 214.363281 L 221.050781 214.363281 C 217.769531 214.363281 215.089844 211.691406 215.089844 208.410156 C 215.089844 205.128906 217.769531 202.457031 221.050781 202.457031 L 256.804688 202.457031 C 260.089844 202.457031 262.765625 205.128906 262.765625 208.410156 C 262.765625 211.691406 260.089844 214.363281 256.804688 214.363281 "/>
<path style=" stroke:none;fill-rule:nonzero;fill:rgb(30.979919%,51.368713%,81.959534%);fill-opacity:1;" d="M 256.804688 238.183594 L 221.050781 238.183594 C 217.769531 238.183594 215.089844 235.507812 215.089844 232.226562 C 215.089844 228.949219 217.769531 226.273438 221.050781 226.273438 L 256.804688 226.273438 C 260.089844 226.273438 262.765625 228.949219 262.765625 232.226562 C 262.765625 235.507812 260.089844 238.183594 256.804688 238.183594 "/>
<path style=" stroke:none;fill-rule:nonzero;fill:rgb(100%,100%,100%);fill-opacity:1;" d="M 352.152344 256.046875 L 316.398438 256.046875 L 316.398438 65.5 L 352.152344 65.5 L 352.152344 256.046875 "/>
<path style=" stroke:none;fill-rule:nonzero;fill:rgb(30.979919%,51.368713%,81.959534%);fill-opacity:1;" d="M 346.195312 107.183594 C 344.660156 107.183594 343.144531 106.601562 341.980469 105.4375 L 334.277344 97.738281 L 326.570312 105.4375 C 324.242188 107.765625 320.472656 107.765625 318.144531 105.4375 C 315.816406 103.113281 315.816406 99.34375 318.144531 97.015625 L 330.0625 85.109375 C 332.390625 82.78125 336.160156 82.78125 338.488281 85.109375 L 350.40625 97.015625 C 352.734375 99.34375 352.734375 103.113281 350.40625 105.4375 C 349.242188 106.601562 347.730469 107.183594 346.195312 107.183594 "/>
<path style=" stroke:none;fill-rule:nonzero;fill:rgb(48.629761%,72.158813%,92.158508%);fill-opacity:1;" d="M 352.152344 190.546875 L 316.398438 190.546875 L 316.398438 154.820312 L 352.152344 154.820312 L 352.152344 190.546875 "/>
<path style=" stroke:none;fill-rule:nonzero;fill:rgb(30.979919%,51.368713%,81.959534%);fill-opacity:1;" d="M 328.316406 41.683594 L 316.398438 41.683594 C 313.117188 41.683594 310.4375 39.007812 310.4375 35.726562 C 310.4375 32.449219 313.117188 29.773438 316.398438 29.773438 L 328.316406 29.773438 C 331.597656 29.773438 334.277344 32.449219 334.277344 35.726562 C 334.277344 39.007812 331.597656 41.683594 328.316406 41.683594 "/>
<path style=" stroke:none;fill-rule:nonzero;fill:rgb(30.979919%,51.368713%,81.959534%);fill-opacity:1;" d="M 292.5625 41.683594 L 280.644531 41.683594 C 277.359375 41.683594 274.683594 39.007812 274.683594 35.726562 C 274.683594 32.449219 277.359375 29.773438 280.644531 29.773438 L 292.5625 29.773438 C 295.84375 29.773438 298.519531 32.449219 298.519531 35.726562 C 298.519531 39.007812 295.84375 41.683594 292.5625 41.683594 "/>
<path style=" stroke:none;fill-rule:nonzero;fill:rgb(100%,100%,100%);fill-opacity:1;" d="M 280.644531 184.589844 L 221.050781 184.589844 L 221.050781 89.320312 L 280.644531 89.320312 L 280.644531 184.589844 "/>
<g clip-path="url(#clip1)" clip-rule="nonzero">
<path style=" stroke:none;fill-rule:nonzero;fill:rgb(30.979919%,51.368713%,81.959534%);fill-opacity:1;" d="M 322.359375 250.089844 L 322.359375 196.5 L 346.195312 196.5 L 346.195312 250.089844 Z M 12.476562 71.453125 L 310.4375 71.453125 L 310.4375 250.089844 L 12.476562 250.089844 Z M 12.476562 11.910156 L 346.195312 11.910156 L 346.195312 59.546875 L 12.476562 59.546875 Z M 322.359375 148.863281 L 322.359375 107.183594 C 323.894531 107.183594 325.40625 106.601562 326.570312 105.4375 L 334.277344 97.738281 L 341.980469 105.4375 C 343.144531 106.601562 344.660156 107.183594 346.195312 107.183594 L 346.195312 148.863281 Z M 346.195312 92.808594 L 338.488281 85.109375 C 336.160156 82.78125 332.390625 82.78125 330.0625 85.109375 L 322.359375 92.808594 L 322.359375 71.453125 L 346.195312 71.453125 Z M 346.195312 184.589844 L 322.359375 184.589844 L 322.359375 160.773438 L 346.195312 160.773438 Z M 352.152344 0 L 6.519531 0 C 3.234375 0 0.558594 2.675781 0.558594 5.953125 L 0.558594 256.046875 C 0.558594 259.324219 3.234375 262 6.519531 262 L 352.152344 262 C 355.4375 262 358.113281 259.324219 358.113281 256.046875 L 358.113281 5.953125 C 358.113281 2.675781 355.4375 0 352.152344 0 "/>
</g>
<path style=" stroke:none;fill-rule:nonzero;fill:rgb(30.979919%,51.368713%,81.959534%);fill-opacity:1;" d="M 119.742188 142.910156 L 48.234375 142.910156 L 48.234375 95.273438 L 119.742188 95.273438 Z M 125.703125 83.363281 L 42.273438 83.363281 C 38.992188 83.363281 36.3125 86.039062 36.3125 89.320312 L 36.3125 148.863281 C 36.3125 152.144531 38.992188 154.820312 42.273438 154.820312 L 125.703125 154.820312 C 128.984375 154.820312 131.660156 152.144531 131.660156 148.863281 L 131.660156 89.320312 C 131.660156 86.039062 128.984375 83.363281 125.703125 83.363281 "/>
<path style=" stroke:none;fill-rule:nonzero;fill:rgb(30.979919%,51.368713%,81.959534%);fill-opacity:1;" d="M 185.296875 83.363281 L 149.539062 83.363281 C 146.257812 83.363281 143.582031 86.039062 143.582031 89.320312 C 143.582031 92.597656 146.257812 95.273438 149.539062 95.273438 L 185.296875 95.273438 C 188.578125 95.273438 191.253906 92.597656 191.253906 89.320312 C 191.253906 86.039062 188.578125 83.363281 185.296875 83.363281 "/>
<path style=" stroke:none;fill-rule:nonzero;fill:rgb(30.979919%,51.368713%,81.959534%);fill-opacity:1;" d="M 185.296875 107.183594 L 149.539062 107.183594 C 146.257812 107.183594 143.582031 109.855469 143.582031 113.136719 C 143.582031 116.417969 146.257812 119.089844 149.539062 119.089844 L 185.296875 119.089844 C 188.578125 119.089844 191.253906 116.417969 191.253906 113.136719 C 191.253906 109.855469 188.578125 107.183594 185.296875 107.183594 "/>
<path style=" stroke:none;fill-rule:nonzero;fill:rgb(30.979919%,51.368713%,81.959534%);fill-opacity:1;" d="M 119.742188 226.273438 L 48.234375 226.273438 L 48.234375 178.636719 L 119.742188 178.636719 Z M 125.703125 166.726562 L 42.273438 166.726562 C 38.992188 166.726562 36.3125 169.402344 36.3125 172.683594 L 36.3125 232.226562 C 36.3125 235.507812 38.992188 238.183594 42.273438 238.183594 L 125.703125 238.183594 C 128.984375 238.183594 131.660156 235.507812 131.660156 232.226562 L 131.660156 172.683594 C 131.660156 169.402344 128.984375 166.726562 125.703125 166.726562 "/>
<path style=" stroke:none;fill-rule:nonzero;fill:rgb(30.979919%,51.368713%,81.959534%);fill-opacity:1;" d="M 185.296875 166.726562 L 149.539062 166.726562 C 146.257812 166.726562 143.582031 169.402344 143.582031 172.683594 C 143.582031 175.960938 146.257812 178.636719 149.539062 178.636719 L 185.296875 178.636719 C 188.578125 178.636719 191.253906 175.960938 191.253906 172.683594 C 191.253906 169.402344 188.578125 166.726562 185.296875 166.726562 "/>
<path style=" stroke:none;fill-rule:nonzero;fill:rgb(30.979919%,51.368713%,81.959534%);fill-opacity:1;" d="M 185.296875 190.546875 L 149.539062 190.546875 C 146.257812 190.546875 143.582031 193.222656 143.582031 196.5 C 143.582031 199.78125 146.257812 202.457031 149.539062 202.457031 L 185.296875 202.457031 C 188.578125 202.457031 191.253906 199.78125 191.253906 196.5 C 191.253906 193.222656 188.578125 190.546875 185.296875 190.546875 "/>
<path style=" stroke:none;fill-rule:nonzero;fill:rgb(30.979919%,51.368713%,81.959534%);fill-opacity:1;" d="M 256.804688 202.457031 L 221.050781 202.457031 C 217.769531 202.457031 215.089844 205.128906 215.089844 208.410156 C 215.089844 211.691406 217.769531 214.363281 221.050781 214.363281 L 256.804688 214.363281 C 260.089844 214.363281 262.765625 211.691406 262.765625 208.410156 C 262.765625 205.128906 260.089844 202.457031 256.804688 202.457031 "/>
<path style=" stroke:none;fill-rule:nonzero;fill:rgb(30.979919%,51.368713%,81.959534%);fill-opacity:1;" d="M 256.804688 226.273438 L 221.050781 226.273438 C 217.769531 226.273438 215.089844 228.949219 215.089844 232.226562 C 215.089844 235.507812 217.769531 238.183594 221.050781 238.183594 L 256.804688 238.183594 C 260.089844 238.183594 262.765625 235.507812 262.765625 232.226562 C 262.765625 228.949219 260.089844 226.273438 256.804688 226.273438 "/>
<path style=" stroke:none;fill-rule:nonzero;fill:rgb(30.979919%,51.368713%,81.959534%);fill-opacity:1;" d="M 328.316406 41.683594 C 331.597656 41.683594 334.277344 39.007812 334.277344 35.726562 C 334.277344 32.449219 331.597656 29.773438 328.316406 29.773438 L 316.398438 29.773438 C 313.117188 29.773438 310.4375 32.449219 310.4375 35.726562 C 310.4375 39.007812 313.117188 41.683594 316.398438 41.683594 L 328.316406 41.683594 "/>
<path style=" stroke:none;fill-rule:nonzero;fill:rgb(30.979919%,51.368713%,81.959534%);fill-opacity:1;" d="M 292.5625 29.773438 L 280.644531 29.773438 C 277.359375 29.773438 274.683594 32.449219 274.683594 35.726562 C 274.683594 39.007812 277.359375 41.683594 280.644531 41.683594 L 292.5625 41.683594 C 295.84375 41.683594 298.519531 39.007812 298.519531 35.726562 C 298.519531 32.449219 295.84375 29.773438 292.5625 29.773438 "/>
<path style=" stroke:none;fill-rule:nonzero;fill:rgb(30.979919%,51.368713%,81.959534%);fill-opacity:1;" d="M 274.683594 178.636719 L 227.011719 178.636719 L 227.011719 95.273438 L 274.683594 95.273438 Z M 280.644531 83.363281 L 221.050781 83.363281 C 217.769531 83.363281 215.089844 86.039062 215.089844 89.320312 L 215.089844 184.589844 C 215.089844 187.871094 217.769531 190.546875 221.050781 190.546875 L 280.644531 190.546875 C 283.925781 190.546875 286.601562 187.871094 286.601562 184.589844 L 286.601562 89.320312 C 286.601562 86.039062 283.925781 83.363281 280.644531 83.363281 "/>
</g>
</svg>
