<?xml version="1.0" encoding="UTF-8"?>
<svg xmlns="http://www.w3.org/2000/svg" xmlns:xlink="http://www.w3.org/1999/xlink" width="375pt" height="262.499992pt" viewBox="0 0 375 262.499992" version="1.2">
<defs>
<clipPath id="clip1">
  <path d="M 103 9 L 256 9 L 256 236 L 103 236 Z M 103 9 "/>
</clipPath>
<clipPath id="clip2">
  <path d="M 103 9 L 179 9 L 179 236 L 103 236 Z M 103 9 "/>
</clipPath>
<clipPath id="clip3">
  <path d="M 3 38 L 104 38 L 104 236 L 3 236 Z M 3 38 "/>
</clipPath>
<clipPath id="clip4">
  <path d="M 176 32 L 311 32 L 311 235.640625 L 176 235.640625 Z M 176 32 "/>
</clipPath>
</defs>
<g id="surface1">
<g clip-path="url(#clip1)" clip-rule="nonzero">
<path style=" stroke:none;fill-rule:nonzero;fill:rgb(87.449646%,90.979004%,95.689392%);fill-opacity:1;" d="M 250.648438 36.578125 L 186.988281 10.539062 C 184.523438 9.539062 181.964844 9.039062 179.308594 9.039062 C 176.65625 9.039062 174.097656 9.539062 171.632812 10.539062 L 103.152344 38.417969 L 103.152344 236.105469 L 171.269531 208.28125 C 173.730469 207.28125 176.289062 206.78125 178.945312 206.78125 C 181.597656 206.78125 184.15625 207.28125 186.621094 208.28125 L 244.988281 232.109375 C 245.261719 232.234375 245.542969 232.339844 245.832031 232.425781 C 246.117188 232.515625 246.410156 232.582031 246.707031 232.632812 C 247.003906 232.6875 247.300781 232.71875 247.601562 232.730469 C 247.902344 232.746094 248.199219 232.738281 248.5 232.714844 C 248.800781 232.691406 249.097656 232.648438 249.390625 232.585938 C 249.683594 232.527344 249.972656 232.445312 250.257812 232.347656 C 250.542969 232.25 250.820312 232.132812 251.089844 232 C 251.359375 231.867188 251.617188 231.71875 251.871094 231.550781 C 252.121094 231.386719 252.359375 231.207031 252.589844 231.011719 C 252.816406 230.8125 253.03125 230.605469 253.234375 230.382812 C 253.4375 230.15625 253.625 229.921875 253.796875 229.675781 C 253.96875 229.429688 254.125 229.171875 254.265625 228.90625 C 254.40625 228.640625 254.53125 228.363281 254.636719 228.082031 C 254.742188 227.800781 254.832031 227.511719 254.902344 227.21875 C 254.972656 226.925781 255.023438 226.628906 255.058594 226.332031 C 255.089844 226.03125 255.105469 225.730469 255.101562 225.429688 L 255.101562 43.257812 C 255.101562 42.542969 255 41.84375 254.792969 41.15625 C 254.585938 40.472656 254.285156 39.832031 253.886719 39.238281 C 253.492188 38.640625 253.015625 38.117188 252.464844 37.664062 C 251.914062 37.210938 251.308594 36.851562 250.648438 36.578125 Z M 250.648438 36.578125 "/>
</g>
<g clip-path="url(#clip2)" clip-rule="nonzero">
<path style=" stroke:none;fill-rule:nonzero;fill:rgb(79.998779%,84.709167%,89.7995%);fill-opacity:1;" d="M 171.269531 208.28125 L 178.96875 205.125 L 178.96875 9.066406 C 176.308594 9.054688 173.738281 9.546875 171.269531 10.539062 L 103.152344 38.417969 L 103.152344 236.105469 Z M 171.269531 208.28125 "/>
</g>
<g clip-path="url(#clip3)" clip-rule="nonzero">
<path style=" stroke:none;fill-rule:nonzero;fill:rgb(2.749634%,58.428955%,100%);fill-opacity:1;" d="M 103.257812 236.105469 L 11.511719 236.105469 C 11 236.101562 10.492188 236.042969 9.988281 235.9375 C 9.488281 235.832031 9 235.679688 8.527344 235.476562 C 8.054688 235.277344 7.609375 235.03125 7.183594 234.742188 C 6.757812 234.453125 6.363281 234.128906 6.003906 233.761719 C 5.640625 233.398438 5.320312 233 5.035156 232.570312 C 4.75 232.144531 4.507812 231.691406 4.3125 231.214844 C 4.113281 230.742188 3.964844 230.25 3.863281 229.746094 C 3.761719 229.242188 3.707031 228.730469 3.707031 228.214844 L 3.707031 46.363281 C 3.707031 45.839844 3.757812 45.324219 3.855469 44.8125 C 3.957031 44.300781 4.109375 43.804688 4.308594 43.324219 C 4.507812 42.839844 4.75 42.382812 5.039062 41.949219 C 5.328125 41.515625 5.65625 41.113281 6.023438 40.746094 C 6.390625 40.378906 6.789062 40.046875 7.222656 39.757812 C 7.652344 39.46875 8.109375 39.222656 8.589844 39.023438 C 9.070312 38.824219 9.5625 38.675781 10.074219 38.570312 C 10.582031 38.46875 11.097656 38.417969 11.617188 38.417969 L 103.257812 38.417969 Z M 103.257812 236.105469 "/>
</g>
<path style=" stroke:none;fill-rule:nonzero;fill:rgb(100%,100%,100%);fill-opacity:1;" d="M 59.980469 161.25 L 59.980469 122.585938 C 59.980469 122.371094 59.9375 122.164062 59.855469 121.960938 C 59.773438 121.761719 59.65625 121.585938 59.503906 121.433594 C 59.351562 121.28125 59.175781 121.164062 58.976562 121.082031 C 58.777344 120.996094 58.570312 120.957031 58.355469 120.957031 L 40.277344 120.957031 C 40.0625 120.957031 39.855469 120.996094 39.65625 121.082031 C 39.457031 121.164062 39.28125 121.28125 39.128906 121.433594 C 38.976562 121.585938 38.859375 121.761719 38.777344 121.960938 C 38.695312 122.164062 38.652344 122.371094 38.652344 122.585938 L 38.652344 132.527344 C 38.652344 132.742188 38.695312 132.949219 38.777344 133.144531 C 38.859375 133.34375 38.980469 133.515625 39.132812 133.664062 C 39.285156 133.8125 39.460938 133.925781 39.660156 134.003906 C 39.859375 134.078125 40.066406 134.113281 40.277344 134.105469 L 45.515625 134.105469 C 45.734375 134.105469 45.941406 134.148438 46.140625 134.230469 C 46.335938 134.3125 46.511719 134.433594 46.664062 134.585938 C 46.816406 134.738281 46.933594 134.914062 47.019531 135.113281 C 47.101562 135.3125 47.140625 135.523438 47.140625 135.738281 L 47.140625 161.460938 C 47.140625 161.675781 47.101562 161.886719 47.019531 162.085938 C 46.933594 162.285156 46.816406 162.460938 46.664062 162.613281 C 46.511719 162.765625 46.335938 162.886719 46.140625 162.96875 C 45.941406 163.050781 45.734375 163.09375 45.515625 163.09375 L 40.277344 163.09375 C 40.0625 163.09375 39.855469 163.132812 39.65625 163.214844 C 39.457031 163.300781 39.28125 163.417969 39.128906 163.570312 C 38.976562 163.722656 38.859375 163.898438 38.777344 164.097656 C 38.695312 164.296875 38.652344 164.507812 38.652344 164.722656 L 38.652344 174.664062 C 38.652344 174.882812 38.695312 175.089844 38.777344 175.289062 C 38.859375 175.488281 38.976562 175.664062 39.128906 175.816406 C 39.28125 175.972656 39.457031 176.089844 39.65625 176.171875 C 39.855469 176.253906 40.0625 176.296875 40.277344 176.296875 L 66.476562 176.296875 C 66.691406 176.296875 66.898438 176.253906 67.097656 176.171875 C 67.296875 176.089844 67.472656 175.972656 67.625 175.816406 C 67.777344 175.664062 67.894531 175.488281 67.976562 175.289062 C 68.058594 175.089844 68.101562 174.882812 68.101562 174.664062 L 68.101562 164.671875 C 68.101562 164.453125 68.058594 164.246094 67.976562 164.046875 C 67.894531 163.847656 67.777344 163.671875 67.625 163.515625 C 67.472656 163.363281 67.296875 163.246094 67.097656 163.164062 C 66.898438 163.082031 66.691406 163.039062 66.476562 163.039062 L 61.550781 163.039062 C 61.324219 163.035156 61.109375 162.980469 60.90625 162.886719 C 60.703125 162.789062 60.527344 162.65625 60.378906 162.488281 C 60.226562 162.320312 60.117188 162.125 60.050781 161.910156 C 59.980469 161.695312 59.957031 161.476562 59.980469 161.25 Z M 59.980469 161.25 "/>
<path style=" stroke:none;fill-rule:nonzero;fill:rgb(100%,100%,100%);fill-opacity:1;" d="M 44.207031 109.226562 L 44.207031 103.492188 C 44.207031 103.160156 44.238281 102.832031 44.304688 102.507812 C 44.367188 102.179688 44.464844 101.863281 44.589844 101.558594 C 44.714844 101.253906 44.871094 100.960938 45.054688 100.6875 C 45.238281 100.410156 45.445312 100.15625 45.679688 99.921875 C 45.914062 99.6875 46.167969 99.476562 46.441406 99.292969 C 46.71875 99.109375 47.007812 98.953125 47.3125 98.824219 C 47.617188 98.699219 47.933594 98.601562 48.257812 98.539062 C 48.578125 98.472656 48.90625 98.441406 49.238281 98.441406 L 54.949219 98.441406 C 55.277344 98.441406 55.605469 98.472656 55.929688 98.539062 C 56.253906 98.601562 56.566406 98.699219 56.875 98.824219 C 57.179688 98.953125 57.46875 99.109375 57.742188 99.292969 C 58.019531 99.476562 58.273438 99.6875 58.503906 99.921875 C 58.738281 100.15625 58.949219 100.410156 59.128906 100.6875 C 59.3125 100.960938 59.46875 101.253906 59.59375 101.558594 C 59.722656 101.863281 59.816406 102.179688 59.882812 102.507812 C 59.945312 102.832031 59.980469 103.160156 59.980469 103.492188 L 59.980469 109.226562 C 59.980469 109.558594 59.945312 109.886719 59.882812 110.210938 C 59.816406 110.535156 59.722656 110.851562 59.59375 111.15625 C 59.46875 111.464844 59.3125 111.753906 59.128906 112.03125 C 58.949219 112.304688 58.738281 112.5625 58.503906 112.796875 C 58.273438 113.03125 58.019531 113.238281 57.742188 113.425781 C 57.46875 113.609375 57.179688 113.765625 56.875 113.890625 C 56.566406 114.019531 56.253906 114.113281 55.929688 114.179688 C 55.605469 114.242188 55.277344 114.273438 54.949219 114.273438 L 49.238281 114.273438 C 48.90625 114.273438 48.578125 114.242188 48.257812 114.179688 C 47.933594 114.113281 47.617188 114.019531 47.3125 113.890625 C 47.007812 113.765625 46.71875 113.609375 46.441406 113.425781 C 46.167969 113.238281 45.914062 113.03125 45.679688 112.796875 C 45.445312 112.5625 45.238281 112.304688 45.054688 112.03125 C 44.871094 111.753906 44.714844 111.464844 44.589844 111.15625 C 44.464844 110.851562 44.367188 110.535156 44.304688 110.210938 C 44.238281 109.886719 44.207031 109.558594 44.207031 109.226562 Z M 44.207031 109.226562 "/>
<path style=" stroke:none;fill-rule:nonzero;fill:rgb(21.958923%,71.369934%,100%);fill-opacity:1;" d="M 315.335938 49.507812 C 303.894531 49.507812 293.078125 53.273438 284.140625 60.382812 C 262.457031 77.628906 258.800781 109.304688 276.042969 130.996094 C 278.605469 134.238281 281.582031 137.164062 284.875 139.671875 C 274.164062 151.800781 267.996094 169.625 267.945312 188.597656 C 267.945312 190.636719 267.996094 192.726562 268.152344 194.765625 C 268.207031 194.871094 268.257812 194.921875 268.308594 195.027344 C 268.363281 195.132812 268.414062 195.183594 268.46875 195.289062 C 268.78125 195.707031 268.988281 196.019531 269.25 196.28125 C 269.40625 196.4375 269.5625 196.59375 269.722656 196.75 C 269.824219 196.855469 269.878906 196.90625 269.980469 197.011719 L 270.085938 197.117188 C 270.816406 197.746094 271.550781 198.320312 272.386719 198.84375 C 273.167969 199.3125 273.953125 199.78125 274.789062 200.199219 C 276.148438 200.878906 277.558594 201.457031 279.179688 202.03125 C 280.640625 202.554688 282.15625 203.023438 283.828125 203.492188 C 286.910156 204.332031 290.152344 205.007812 293.808594 205.585938 C 296.109375 205.949219 298.511719 206.265625 300.914062 206.472656 C 303.894531 206.785156 306.976562 206.996094 310.058594 207.101562 C 311.886719 207.152344 313.714844 207.203125 315.492188 207.203125 C 316.746094 207.203125 318 207.203125 319.203125 207.152344 C 325.421875 206.996094 331.378906 206.472656 336.96875 205.585938 C 340.519531 205.007812 343.761719 204.332031 346.738281 203.492188 C 348.515625 203.023438 350.082031 202.5 351.546875 201.976562 C 353.0625 201.402344 354.472656 200.828125 355.726562 200.199219 C 357.660156 199.207031 359.121094 198.265625 360.273438 197.167969 C 360.585938 196.855469 360.847656 196.59375 361.109375 196.332031 C 361.214844 196.230469 361.316406 196.125 361.421875 195.96875 C 361.632812 193.5625 361.734375 191.160156 361.734375 188.753906 C 361.789062 170.042969 355.777344 152.269531 345.277344 140.089844 C 345.746094 139.777344 346.21875 139.410156 346.6875 139.046875 C 368.371094 121.796875 372.027344 90.121094 354.785156 68.429688 C 345.171875 56.410156 330.800781 49.507812 315.335938 49.507812 Z M 315.335938 49.507812 "/>
<path style=" stroke:none;fill-rule:nonzero;fill:rgb(21.958923%,71.369934%,100%);fill-opacity:1;" d="M 174.988281 50.660156 C 163.546875 50.660156 152.730469 54.421875 143.796875 61.53125 C 122.113281 78.78125 118.453125 110.453125 135.695312 132.148438 C 138.257812 135.386719 141.234375 138.3125 144.527344 140.824219 C 133.761719 153.003906 127.597656 170.824219 127.546875 189.746094 C 127.546875 191.785156 127.597656 193.875 127.753906 195.914062 C 127.808594 196.019531 127.859375 196.070312 127.910156 196.175781 C 127.964844 196.28125 128.015625 196.332031 128.066406 196.4375 C 128.382812 196.855469 128.589844 197.167969 128.851562 197.429688 C 129.007812 197.585938 129.164062 197.746094 129.320312 197.902344 C 129.425781 198.003906 129.480469 198.058594 129.582031 198.164062 L 129.6875 198.265625 C 130.417969 198.894531 131.152344 199.46875 131.988281 199.992188 C 132.769531 200.460938 133.554688 200.933594 134.390625 201.351562 C 135.75 202.03125 137.160156 202.605469 138.78125 203.179688 C 140.242188 203.703125 141.757812 204.171875 143.429688 204.644531 C 146.511719 205.480469 149.753906 206.160156 153.410156 206.734375 C 155.710938 207.101562 158.113281 207.414062 160.515625 207.625 C 163.496094 207.9375 166.578125 208.144531 169.660156 208.25 C 171.488281 208.300781 173.316406 208.355469 175.09375 208.355469 C 176.347656 208.355469 177.601562 208.355469 178.804688 208.300781 C 185.023438 208.144531 190.980469 207.625 196.570312 206.734375 C 200.121094 206.160156 203.363281 205.480469 206.339844 204.644531 C 208.117188 204.171875 209.683594 203.652344 211.148438 203.128906 C 212.664062 202.554688 214.074219 201.976562 215.328125 201.351562 C 217.261719 200.359375 218.722656 199.417969 219.875 198.320312 C 220.1875 198.003906 220.449219 197.746094 220.710938 197.484375 C 220.8125 197.378906 220.917969 197.273438 221.023438 197.117188 C 221.230469 194.710938 221.335938 192.308594 221.335938 189.902344 C 221.390625 171.191406 215.378906 153.421875 204.878906 141.242188 C 205.347656 140.929688 205.816406 140.5625 206.289062 140.195312 C 227.972656 122.949219 231.628906 91.273438 214.386719 69.582031 C 204.773438 57.609375 190.402344 50.660156 174.988281 50.660156 Z M 174.988281 50.660156 "/>
<path style=" stroke:none;fill-rule:nonzero;fill:rgb(36.079407%,88.238525%,90.19928%);fill-opacity:1;" d="M 281.425781 146.9375 C 307.65625 126.136719 311.992188 87.925781 291.195312 61.742188 C 270.398438 35.5 232.203125 31.164062 206.027344 51.964844 C 179.796875 72.769531 175.460938 110.976562 196.257812 137.164062 C 199.441406 141.136719 202.996094 144.640625 206.863281 147.617188 C 194.425781 161.730469 186.484375 182.953125 186.433594 206.683594 C 186.433594 209.191406 186.539062 211.699219 186.695312 214.15625 C 186.746094 214.261719 186.796875 214.367188 186.851562 214.46875 C 186.902344 214.574219 187.007812 214.679688 187.058594 214.785156 C 187.320312 215.203125 187.632812 215.621094 188 215.984375 C 188.210938 216.195312 188.367188 216.40625 188.574219 216.5625 C 188.730469 216.71875 188.886719 216.824219 188.992188 216.980469 C 189.882812 217.761719 190.769531 218.441406 191.710938 219.019531 C 192.652344 219.59375 193.644531 220.167969 194.582031 220.636719 C 194.582031 220.636719 194.53125 220.636719 194.53125 220.636719 C 196.257812 221.472656 198.085938 222.257812 199.859375 222.886719 C 201.691406 223.566406 203.570312 224.140625 205.453125 224.664062 C 209.421875 225.761719 213.445312 226.542969 217.46875 227.222656 C 220.34375 227.695312 223.164062 228.058594 226.039062 228.320312 C 229.695312 228.6875 233.355469 228.949219 237.0625 229.054688 C 240.773438 229.15625 244.429688 229.210938 248.140625 229.105469 C 255.300781 228.949219 262.457031 228.375 269.5625 227.222656 C 269.5625 227.222656 269.511719 227.222656 269.511719 227.222656 C 273.484375 226.597656 277.453125 225.8125 281.375 224.714844 C 283.304688 224.191406 285.238281 223.566406 287.121094 222.886719 C 288.84375 222.257812 290.515625 221.527344 292.1875 220.742188 C 292.1875 220.742188 292.136719 220.742188 292.136719 220.742188 C 294.070312 219.75 296.003906 218.601562 297.675781 217.082031 C 298.042969 216.769531 298.355469 216.40625 298.667969 216.039062 C 298.773438 215.882812 298.929688 215.777344 299.035156 215.621094 C 299.296875 212.746094 299.398438 209.871094 299.398438 206.890625 C 299.453125 183.421875 291.71875 162.359375 279.542969 148.191406 C 280.328125 147.773438 280.851562 147.355469 281.425781 146.9375 Z M 281.425781 146.9375 "/>
<g clip-path="url(#clip4)" clip-rule="nonzero">
<path style=" stroke:none;fill-rule:nonzero;fill:rgb(21.958923%,71.369934%,100%);fill-opacity:1;" d="M 243.753906 235.640625 C 241.503906 235.640625 239.207031 235.585938 236.90625 235.535156 C 233.09375 235.378906 229.226562 235.117188 225.464844 234.75 C 222.433594 234.4375 219.402344 234.070312 216.53125 233.601562 C 216.476562 233.601562 216.425781 233.601562 216.371094 233.601562 C 211.828125 232.871094 207.699219 231.980469 203.78125 230.933594 C 201.691406 230.359375 199.652344 229.734375 197.71875 229.054688 C 195.578125 228.269531 193.589844 227.433594 191.710938 226.492188 C 191.65625 226.441406 191.554688 226.441406 191.5 226.386719 C 190.351562 225.8125 189.304688 225.1875 188.261719 224.558594 C 187.007812 223.773438 185.804688 222.886719 184.707031 221.945312 C 184.605469 221.839844 184.5 221.734375 184.394531 221.632812 C 184.238281 221.472656 184.132812 221.371094 183.976562 221.214844 C 183.714844 220.953125 183.402344 220.636719 183.140625 220.324219 C 182.671875 219.800781 182.199219 219.175781 181.679688 218.441406 C 181.679688 218.441406 181.625 218.390625 181.625 218.390625 C 181.574219 218.339844 181.574219 218.285156 181.519531 218.285156 C 181.417969 218.078125 181.3125 217.921875 181.15625 217.710938 C 181.050781 217.554688 180.945312 217.34375 180.84375 217.1875 C 180.421875 216.40625 180.164062 215.515625 180.109375 214.574219 C 179.953125 211.960938 179.847656 209.296875 179.847656 206.683594 C 179.902344 184.78125 186.328125 163.976562 197.71875 148.507812 C 195.316406 146.257812 193.070312 143.855469 191.03125 141.242188 C 168.09375 112.179688 172.953125 69.84375 201.953125 46.84375 C 230.949219 23.792969 273.273438 28.652344 296.316406 57.664062 C 307.445312 71.722656 312.460938 89.285156 310.425781 107.109375 C 308.542969 123.46875 300.914062 138.261719 288.792969 149.238281 C 299.871094 164.710938 306.089844 185.355469 306.089844 206.945312 C 306.089844 210.027344 305.929688 213.164062 305.667969 216.195312 C 305.566406 217.449219 305.09375 218.652344 304.3125 219.644531 C 304.15625 219.855469 303.945312 220.117188 303.738281 220.324219 C 303.320312 220.847656 302.796875 221.316406 302.222656 221.894531 C 302.222656 221.894531 302.167969 221.945312 302.167969 221.945312 C 300.339844 223.617188 298.144531 225.027344 295.375 226.441406 C 295.324219 226.492188 295.273438 226.492188 295.167969 226.542969 C 293.390625 227.433594 291.511719 228.21875 289.417969 229 C 287.488281 229.679688 285.449219 230.359375 283.148438 230.988281 C 279.335938 232.03125 275.207031 232.921875 270.609375 233.652344 C 270.558594 233.652344 270.453125 233.652344 270.398438 233.707031 C 263.449219 234.804688 256.03125 235.429688 248.351562 235.640625 C 246.886719 235.585938 245.320312 235.640625 243.753906 235.640625 Z M 218.722656 220.691406 C 221.335938 221.109375 224.054688 221.472656 226.824219 221.734375 C 230.324219 222.101562 233.875 222.3125 237.429688 222.46875 C 240.984375 222.570312 244.589844 222.625 248.089844 222.519531 C 255.300781 222.363281 262.25 221.734375 268.675781 220.742188 C 268.726562 220.742188 268.78125 220.742188 268.832031 220.742188 C 272.855469 220.117188 276.460938 219.332031 279.753906 218.441406 C 281.738281 217.921875 283.464844 217.34375 285.03125 216.769531 C 286.597656 216.195312 288.007812 215.621094 289.261719 214.992188 C 289.316406 214.992188 289.316406 214.941406 289.367188 214.941406 C 290.832031 214.210938 291.980469 213.53125 292.867188 212.796875 C 292.972656 210.863281 293.023438 208.878906 293.023438 206.945312 C 293.078125 185.878906 286.390625 166.070312 274.789062 152.53125 C 273.585938 151.171875 273.066406 149.34375 273.273438 147.566406 C 273.484375 145.738281 274.421875 144.117188 275.886719 143.019531 C 276.460938 142.601562 276.933594 142.234375 277.402344 141.867188 C 288.6875 132.878906 295.847656 120.019531 297.519531 105.644531 C 299.191406 91.273438 295.113281 77.160156 286.128906 65.816406 C 267.527344 42.402344 233.457031 38.480469 210.101562 57.035156 C 186.746094 75.589844 182.828125 109.671875 201.375 133.085938 C 204.144531 136.589844 207.332031 139.726562 210.886719 142.445312 C 212.347656 143.542969 213.238281 145.214844 213.394531 146.992188 C 213.550781 148.769531 212.976562 150.597656 211.773438 151.957031 C 199.859375 165.441406 193.015625 185.410156 193.015625 206.683594 C 193.015625 208.40625 193.070312 210.132812 193.121094 211.855469 C 193.121094 211.855469 193.121094 211.855469 193.171875 211.910156 C 193.226562 211.960938 193.328125 212.066406 193.382812 212.117188 L 193.433594 212.171875 C 194.007812 212.640625 194.582031 213.113281 195.261719 213.53125 C 195.996094 214 196.726562 214.417969 197.613281 214.835938 C 197.667969 214.835938 197.667969 214.886719 197.71875 214.886719 C 199.128906 215.566406 200.59375 216.195312 202.210938 216.769531 C 203.832031 217.34375 205.558594 217.867188 207.332031 218.390625 C 210.835938 219.332031 214.542969 220.117188 218.671875 220.796875 C 218.671875 220.691406 218.722656 220.691406 218.722656 220.691406 Z M 218.722656 220.691406 "/>
</g>
<path style=" stroke:none;fill-rule:nonzero;fill:rgb(21.958923%,71.369934%,100%);fill-opacity:1;" d="M 187.058594 221.265625 C 185.703125 221.265625 184.289062 220.847656 183.140625 219.957031 C 182.515625 219.488281 181.992188 218.914062 181.574219 218.285156 C 179.640625 215.308594 180.421875 211.386719 183.351562 209.347656 C 186.222656 207.363281 190.140625 207.988281 192.285156 210.757812 C 192.335938 210.8125 192.390625 210.917969 192.441406 210.96875 C 194.269531 213.582031 193.957031 217.1875 191.65625 219.4375 C 190.351562 220.636719 188.730469 221.265625 187.058594 221.265625 Z M 187.058594 221.265625 "/>
</g>
</svg>
