<?xml version="1.0" encoding="UTF-8"?>
<svg xmlns="http://www.w3.org/2000/svg" xmlns:xlink="http://www.w3.org/1999/xlink" width="750pt" height="374.999991pt" viewBox="0 0 750 374.999991" version="1.2">
<defs>
<clipPath id="clip1">
  <path d="M 27.691406 28.761719 L 363.691406 28.761719 L 363.691406 297.179688 L 27.691406 297.179688 Z M 27.691406 28.761719 "/>
</clipPath>
<clipPath id="clip2">
  <path d="M 27.691406 28.761719 L 363.691406 28.761719 L 363.691406 297.179688 L 27.691406 297.179688 Z M 27.691406 28.761719 "/>
</clipPath>
<clipPath id="clip3">
  <path d="M 42 28.761719 L 363.691406 28.761719 L 363.691406 297.179688 L 42 297.179688 Z M 42 28.761719 "/>
</clipPath>
<filter id="alpha" filterUnits="objectBoundingBox" x="0%" y="0%" width="100%" height="100%">
  <feColorMatrix type="matrix" in="SourceGraphic" values="0 0 0 0 1 0 0 0 0 1 0 0 0 0 1 0 0 0 1 0"/>
</filter>
<mask id="mask0">
  <g filter="url(#alpha)">
<rect x="0" y="0" width="750" height="374.999991" style="fill:rgb(0%,0%,0%);fill-opacity:0.698;stroke:none;"/>
  </g>
</mask>
<clipPath id="clip5">
  <path d="M 0.320312 186 L 90 186 L 90 274.1875 L 0.320312 274.1875 Z M 0.320312 186 "/>
</clipPath>
<clipPath id="clip6">
  <path d="M 48 1.9375 L 275.359375 1.9375 L 275.359375 227 L 48 227 Z M 48 1.9375 "/>
</clipPath>
<clipPath id="clip4">
  <rect x="0" y="0" width="276" height="276"/>
</clipPath>
<g id="surface5" clip-path="url(#clip4)">
<path style=" stroke:none;fill-rule:nonzero;fill:rgb(21.958923%,71.369934%,100%);fill-opacity:1;" d="M 30.894531 265.945312 L 8.625 243.96875 L 58.667969 194.515625 C 58.667969 194.515625 58.667969 194.515625 58.941406 194.515625 L 81.214844 216.496094 Z M 30.894531 265.945312 "/>
<g clip-path="url(#clip5)" clip-rule="nonzero">
<path style=" stroke:none;fill-rule:nonzero;fill:rgb(27.059937%,29.40979%,32.939148%);fill-opacity:1;" d="M 30.894531 274.1875 C 28.695312 274.1875 26.773438 273.363281 25.121094 271.714844 L 2.847656 249.734375 C 1.199219 248.089844 0.375 246.164062 0.375 243.96875 C 0.375 241.769531 1.199219 239.570312 2.847656 238.199219 L 52.894531 188.746094 C 55.917969 185.726562 61.417969 185.726562 64.441406 188.746094 L 86.714844 210.726562 C 88.363281 212.375 89.191406 214.296875 89.191406 216.496094 C 89.191406 218.691406 88.363281 220.617188 86.988281 222.265625 L 36.945312 271.714844 C 35.296875 273.363281 33.097656 274.1875 30.894531 274.1875 Z M 20.449219 243.96875 L 30.894531 254.40625 L 69.390625 216.496094 L 58.941406 206.054688 Z M 20.449219 243.96875 "/>
</g>
<path style=" stroke:none;fill-rule:nonzero;fill:rgb(100%,100%,100%);fill-opacity:1;" d="M 267.09375 114.296875 C 267.09375 56.882812 220.074219 10.453125 162.054688 10.453125 C 104.039062 10.453125 57.019531 56.882812 57.019531 114.296875 C 57.019531 171.714844 104.039062 217.867188 162.054688 217.867188 C 220.074219 217.867188 267.09375 171.441406 267.09375 114.296875 Z M 83.414062 114.296875 C 83.414062 71.167969 118.609375 36.550781 162.054688 36.550781 C 205.5 36.550781 240.695312 71.441406 240.695312 114.296875 C 240.695312 157.15625 205.5 192.042969 162.054688 192.042969 C 118.609375 192.042969 83.414062 157.15625 83.414062 114.296875 Z M 83.414062 114.296875 "/>
<path style=" stroke:none;fill-rule:nonzero;fill:rgb(65.098572%,65.098572%,65.098572%);fill-opacity:1;" d="M 162.054688 192.867188 C 119.160156 192.867188 84.238281 157.703125 84.238281 114.296875 C 84.238281 70.890625 119.160156 35.726562 162.054688 35.726562 C 204.949219 35.726562 239.871094 70.890625 239.871094 114.296875 C 239.871094 157.703125 205.226562 192.867188 162.054688 192.867188 Z M 162.054688 192.867188 "/>
<g clip-path="url(#clip6)" clip-rule="nonzero">
<path style=" stroke:none;fill-rule:nonzero;fill:rgb(27.059937%,29.40979%,32.939148%);fill-opacity:1;" d="M 162.054688 226.109375 C 99.636719 226.109375 48.769531 175.835938 48.769531 114.023438 C 48.769531 52.210938 99.636719 1.9375 162.054688 1.9375 C 224.472656 1.9375 275.34375 52.484375 275.34375 114.296875 C 275.34375 176.109375 224.472656 226.109375 162.054688 226.109375 Z M 162.054688 18.695312 C 108.710938 18.695312 65.265625 61.550781 65.265625 114.296875 C 65.265625 167.042969 108.710938 209.625 162.054688 209.625 C 215.398438 209.625 258.84375 167.042969 258.84375 114.296875 C 258.84375 61.550781 215.398438 18.695312 162.054688 18.695312 Z M 162.054688 18.695312 "/>
</g>
<path style=" stroke:none;fill-rule:nonzero;fill:rgb(27.059937%,29.40979%,32.939148%);fill-opacity:1;" d="M 62.792969 205.230469 C 62.792969 203.308594 63.617188 201.660156 64.992188 200.011719 L 82.867188 182.429688 C 85.613281 179.683594 90.289062 179.683594 93.039062 182.429688 C 95.789062 185.175781 95.789062 189.847656 93.039062 192.59375 L 75.167969 210.175781 C 72.417969 212.921875 67.742188 212.921875 64.992188 210.175781 C 63.34375 209.078125 62.792969 207.15625 62.792969 205.230469 Z M 62.792969 205.230469 "/>
<path style=" stroke:none;fill-rule:nonzero;fill:rgb(100%,100%,100%);fill-opacity:1;" d="M 110.636719 103.035156 C 109.8125 103.035156 108.988281 103.035156 108.164062 102.484375 C 104.3125 101.113281 102.386719 96.992188 103.761719 93.144531 C 112.5625 68.417969 135.933594 51.660156 162.054688 51.660156 C 165.90625 51.660156 169.207031 54.957031 169.207031 58.804688 C 169.207031 62.648438 165.90625 65.945312 162.054688 65.945312 C 141.984375 65.945312 124.109375 78.585938 117.511719 97.816406 C 116.410156 101.113281 113.660156 103.035156 110.636719 103.035156 Z M 110.636719 103.035156 "/>
<path style=" stroke:none;fill-rule:nonzero;fill:rgb(100%,100%,100%);fill-opacity:1;" d="M 107.613281 121.441406 C 103.761719 121.441406 100.464844 118.144531 100.464844 114.296875 L 100.464844 113.199219 C 100.464844 109.351562 103.761719 106.054688 107.613281 106.054688 C 107.613281 106.054688 107.613281 106.054688 107.886719 106.054688 C 111.738281 106.054688 115.035156 109.351562 115.035156 113.472656 L 115.035156 114.296875 C 114.761719 118.144531 111.460938 121.441406 107.613281 121.441406 Z M 107.613281 121.441406 "/>
</g>
<clipPath id="clip7">
  <path d="M 419 24.578125 L 689 24.578125 L 689 230 L 419 230 Z M 419 24.578125 "/>
</clipPath>
<clipPath id="clip8">
  <path d="M 366 292 L 373 292 L 373 333.578125 L 366 333.578125 Z M 366 292 "/>
</clipPath>
<clipPath id="clip9">
  <path d="M 348.734375 309 L 391 309 L 391 317 L 348.734375 317 Z M 348.734375 309 "/>
</clipPath>
<clipPath id="clip10">
  <path d="M 698 85 L 740.234375 85 L 740.234375 92 L 698 92 Z M 698 85 "/>
</clipPath>
</defs>
<g id="surface1">
<path style=" stroke:none;fill-rule:nonzero;fill:rgb(77.249146%,89.408875%,98.039246%);fill-opacity:1;" d="M 44.507812 34.355469 L 347.148438 34.355469 C 353.339844 34.355469 358.355469 39.359375 358.355469 45.539062 L 358.355469 280.40625 C 358.355469 286.585938 353.339844 291.589844 347.148438 291.589844 L 44.507812 291.589844 C 38.3125 291.589844 33.296875 286.585938 33.296875 280.40625 L 33.296875 45.539062 C 33.296875 39.359375 38.3125 34.355469 44.507812 34.355469 Z M 44.507812 34.355469 "/>
<path style=" stroke:none;fill-rule:nonzero;fill:rgb(80.778503%,84.709167%,92.939758%);fill-opacity:1;" d="M 44.507812 34.355469 L 347.148438 34.355469 C 353.339844 34.355469 358.355469 39.359375 358.355469 45.539062 L 358.355469 101.460938 L 33.296875 101.460938 L 33.296875 45.539062 C 33.296875 39.359375 38.3125 34.355469 44.507812 34.355469 Z M 44.507812 34.355469 "/>
<path style=" stroke:none;fill-rule:nonzero;fill:rgb(89.019775%,94.898987%,100%);fill-opacity:1;" d="M 358.355469 101.460938 L 358.355469 194.734375 L 261.289062 291.589844 L 153.402344 291.589844 L 343.953125 101.460938 Z M 322.039062 101.460938 L 131.488281 291.589844 L 88.335938 291.589844 L 278.886719 101.460938 Z M 254.113281 101.460938 L 63.5625 291.589844 L 56.390625 291.589844 L 246.941406 101.460938 Z M 254.113281 101.460938 "/>
<path style=" stroke:none;fill-rule:nonzero;fill:rgb(77.249146%,89.408875%,98.039246%);fill-opacity:1;" d="M 167.804688 56.722656 L 335.9375 56.722656 L 335.9375 79.09375 L 167.804688 79.09375 Z M 167.804688 56.722656 "/>
<path style=" stroke:none;fill-rule:nonzero;fill:rgb(100%,97.24884%,97.24884%);fill-opacity:1;" d="M 143.480469 117.285156 L 150.429688 129.980469 L 163.152344 136.914062 L 150.429688 143.792969 L 143.480469 156.484375 L 136.589844 143.792969 L 123.867188 136.914062 L 136.589844 129.980469 Z M 266.332031 146.195312 L 271.152344 154.921875 L 279.894531 159.730469 L 271.152344 164.484375 L 266.332031 173.261719 L 261.566406 164.484375 L 252.769531 159.730469 L 261.566406 154.921875 Z M 127.507812 227.503906 L 130.757812 233.488281 L 136.757812 236.730469 L 130.757812 239.976562 L 127.507812 245.957031 L 124.257812 239.976562 L 118.261719 236.730469 L 124.257812 233.488281 Z M 127.507812 227.503906 "/>
<g clip-path="url(#clip1)" clip-rule="nonzero">
<path style=" stroke:none;fill-rule:nonzero;fill:rgb(55.288696%,42.349243%,62.348938%);fill-opacity:1;" d="M 347.148438 28.761719 L 44.507812 28.761719 C 35.222656 28.761719 27.695312 36.273438 27.695312 45.539062 L 27.695312 280.40625 C 27.695312 289.671875 35.222656 297.179688 44.507812 297.179688 L 347.148438 297.179688 C 356.433594 297.179688 363.960938 289.671875 363.960938 280.40625 L 363.960938 45.539062 C 363.960938 36.273438 356.433594 28.761719 347.148438 28.761719 Z M 352.75 280.40625 C 352.75 283.492188 350.242188 285.996094 347.148438 285.996094 L 44.507812 285.996094 C 41.414062 285.996094 38.902344 283.492188 38.902344 280.40625 L 38.902344 107.050781 L 352.75 107.050781 Z M 352.75 95.867188 L 38.902344 95.867188 L 38.902344 45.539062 C 38.902344 42.453125 41.414062 39.949219 44.507812 39.949219 L 347.148438 39.949219 C 350.242188 39.949219 352.75 42.453125 352.75 45.539062 Z M 352.75 95.867188 "/>
</g>
<path style=" stroke:none;fill-rule:nonzero;fill:rgb(92.939758%,47.059631%,59.999084%);fill-opacity:1;" d="M 61.320312 56.722656 C 55.128906 56.722656 50.113281 61.730469 50.113281 67.90625 C 50.113281 74.085938 55.128906 79.09375 61.320312 79.09375 C 67.511719 79.09375 72.53125 74.085938 72.53125 67.90625 C 72.53125 61.730469 67.511719 56.722656 61.320312 56.722656 Z M 61.320312 56.722656 "/>
<path style=" stroke:none;fill-rule:nonzero;fill:rgb(100%,92.158508%,60.778809%);fill-opacity:1;" d="M 94.949219 56.722656 C 88.753906 56.722656 83.738281 61.730469 83.738281 67.90625 C 83.738281 74.085938 88.753906 79.09375 94.949219 79.09375 C 101.140625 79.09375 106.15625 74.085938 106.15625 67.90625 C 106.15625 61.730469 101.140625 56.722656 94.949219 56.722656 Z M 94.949219 56.722656 "/>
<path style=" stroke:none;fill-rule:nonzero;fill:rgb(44.709778%,79.219055%,68.629456%);fill-opacity:1;" d="M 128.574219 56.722656 C 122.382812 56.722656 117.363281 61.730469 117.363281 67.90625 C 117.363281 74.085938 122.382812 79.09375 128.574219 79.09375 C 134.765625 79.09375 139.78125 74.085938 139.78125 67.90625 C 139.78125 61.730469 134.765625 56.722656 128.574219 56.722656 Z M 128.574219 56.722656 "/>
<path style=" stroke:none;fill-rule:nonzero;fill:rgb(55.288696%,42.349243%,62.348938%);fill-opacity:1;" d="M 111.761719 274.8125 C 114.855469 274.8125 117.363281 272.308594 117.363281 269.222656 L 117.363281 258.039062 C 117.363281 254.949219 114.855469 252.445312 111.761719 252.445312 C 108.667969 252.445312 106.15625 254.949219 106.15625 258.039062 L 106.15625 269.222656 C 106.15625 272.308594 108.667969 274.8125 111.761719 274.8125 Z M 83.738281 274.8125 C 86.832031 274.8125 89.34375 272.308594 89.34375 269.222656 L 89.34375 258.039062 C 89.34375 254.949219 86.832031 252.445312 83.738281 252.445312 C 80.644531 252.445312 78.132812 254.949219 78.132812 258.039062 L 78.132812 269.222656 C 78.132812 272.308594 80.644531 274.8125 83.738281 274.8125 Z M 55.714844 274.8125 C 58.808594 274.8125 61.320312 272.308594 61.320312 269.222656 L 61.320312 258.039062 C 61.320312 254.949219 58.808594 252.445312 55.714844 252.445312 C 52.621094 252.445312 50.113281 254.949219 50.113281 258.039062 L 50.113281 269.222656 C 50.113281 272.308594 52.621094 274.8125 55.714844 274.8125 Z M 139.78125 274.8125 C 142.875 274.8125 145.386719 272.308594 145.386719 269.222656 L 145.386719 258.039062 C 145.386719 254.949219 142.875 252.445312 139.78125 252.445312 C 136.6875 252.445312 134.179688 254.949219 134.179688 258.039062 L 134.179688 269.222656 C 134.179688 272.308594 136.6875 274.8125 139.78125 274.8125 Z M 167.804688 274.8125 C 170.898438 274.8125 173.410156 272.308594 173.410156 269.222656 L 173.410156 258.039062 C 173.410156 254.949219 170.898438 252.445312 167.804688 252.445312 C 164.710938 252.445312 162.199219 254.949219 162.199219 258.039062 L 162.199219 269.222656 C 162.199219 272.308594 164.710938 274.8125 167.804688 274.8125 Z M 195.828125 274.8125 C 198.921875 274.8125 201.433594 272.308594 201.433594 269.222656 L 201.433594 258.039062 C 201.433594 254.949219 198.921875 252.445312 195.828125 252.445312 C 192.734375 252.445312 190.222656 254.949219 190.222656 258.039062 L 190.222656 269.222656 C 190.222656 272.308594 192.734375 274.8125 195.828125 274.8125 Z M 223.851562 252.445312 C 220.757812 252.445312 218.246094 254.949219 218.246094 258.039062 L 218.246094 269.222656 C 218.246094 272.308594 220.757812 274.8125 223.851562 274.8125 C 226.941406 274.8125 229.453125 272.308594 229.453125 269.222656 L 229.453125 258.039062 C 229.453125 254.949219 226.941406 252.445312 223.851562 252.445312 Z M 251.871094 252.445312 C 248.777344 252.445312 246.265625 254.949219 246.265625 258.039062 L 246.265625 269.222656 C 246.265625 272.308594 248.777344 274.8125 251.871094 274.8125 C 254.964844 274.8125 257.476562 272.308594 257.476562 269.222656 L 257.476562 258.039062 C 257.476562 254.949219 254.964844 252.445312 251.871094 252.445312 Z M 279.894531 252.445312 C 276.800781 252.445312 274.289062 254.949219 274.289062 258.039062 L 274.289062 269.222656 C 274.289062 272.308594 276.800781 274.8125 279.894531 274.8125 C 282.988281 274.8125 285.5 272.308594 285.5 269.222656 L 285.5 258.039062 C 285.5 254.949219 282.988281 252.445312 279.894531 252.445312 Z M 307.917969 252.445312 C 304.824219 252.445312 302.3125 254.949219 302.3125 258.039062 L 302.3125 269.222656 C 302.3125 272.308594 304.824219 274.8125 307.917969 274.8125 C 311.011719 274.8125 313.519531 272.308594 313.519531 269.222656 L 313.519531 258.039062 C 313.519531 254.949219 311.011719 252.445312 307.917969 252.445312 Z M 335.9375 274.8125 C 339.03125 274.8125 341.542969 272.308594 341.542969 269.222656 L 341.542969 258.039062 C 341.542969 254.949219 339.03125 252.445312 335.9375 252.445312 C 332.84375 252.445312 330.335938 254.949219 330.335938 258.039062 L 330.335938 269.222656 C 330.335938 272.308594 332.84375 274.8125 335.9375 274.8125 Z M 330.335938 51.132812 L 173.410156 51.132812 C 167.214844 51.132812 162.199219 56.136719 162.199219 62.316406 L 162.199219 73.5 C 162.199219 79.679688 167.214844 84.683594 173.410156 84.683594 L 330.335938 84.683594 C 336.527344 84.683594 341.542969 79.679688 341.542969 73.5 L 341.542969 62.316406 C 341.542969 56.136719 336.527344 51.132812 330.335938 51.132812 Z M 173.410156 73.5 L 173.410156 62.316406 L 330.335938 62.316406 L 330.335938 73.5 Z M 173.410156 73.5 "/>
<g clip-path="url(#clip2)" clip-rule="nonzero">
<path style="fill:none;stroke-width:2;stroke-linecap:round;stroke-linejoin:miter;stroke:rgb(55.288696%,42.349243%,62.348938%);stroke-opacity:1;stroke-miterlimit:10;" d="M 36.000162 32.000007 L 36.000162 39.999657 C 36.000162 42.760975 33.76073 44.999787 30.999948 44.999787 C 28.239166 44.999787 25.999733 42.760975 25.999733 39.999657 L 25.999733 37.000137 L 28.000098 39.00005 " transform="matrix(5.604447,0,0,5.592042,16.485092,-15.972714)"/>
</g>
<g clip-path="url(#clip3)" clip-rule="nonzero">
<path style="fill:none;stroke-width:2;stroke-linecap:round;stroke-linejoin:miter;stroke:rgb(55.288696%,42.349243%,62.348938%);stroke-opacity:1;stroke-miterlimit:10;" d="M 36.000162 26.000269 C 34.342717 26.000269 33.000312 27.342858 33.000312 28.999789 C 33.000312 30.656719 34.342717 32.000007 36.000162 32.000007 C 37.65691 32.000007 39.000012 30.656719 39.000012 28.999789 C 39.000012 27.342858 37.65691 26.000269 36.000162 26.000269 Z M 36.000162 26.000269 " transform="matrix(5.604447,0,0,5.592042,16.485092,-15.972714)"/>
</g>
<use xlink:href="#surface5" transform="matrix(1,0,0,1,10,84)" mask="url(#mask0)"/>
<path style=" stroke:none;fill-rule:nonzero;fill:rgb(21.958923%,71.369934%,100%);fill-opacity:1;" d="M 553.960938 27.894531 L 422.507812 137.183594 L 553.964844 226.304688 L 685.417969 137.183594 L 553.960938 27.894531 "/>
<g clip-path="url(#clip7)" clip-rule="nonzero">
<path style="fill:none;stroke-width:45;stroke-linecap:round;stroke-linejoin:round;stroke:rgb(19.219971%,19.219971%,52.159119%);stroke-opacity:1;stroke-miterlimit:10;" d="M 2195.208985 3230.779303 L 1235.239364 2432.862982 L 2195.237512 1782.192424 L 3155.207133 2432.862982 Z M 2195.208985 3230.779303 " transform="matrix(0.136935,0,0,-0.136968,253.360716,470.408153)"/>
</g>
<path style=" stroke:none;fill-rule:nonzero;fill:rgb(100%,56.858826%,30.198669%);fill-opacity:1;" d="M 611.027344 63.207031 L 445.039062 63.207031 L 445.039062 315.417969 L 662.898438 315.417969 L 662.898438 108.609375 L 611.027344 63.207031 "/>
<path style="fill:none;stroke-width:45;stroke-linecap:round;stroke-linejoin:round;stroke:rgb(19.219971%,19.219971%,52.159119%);stroke-opacity:1;stroke-miterlimit:10;" d="M 2611.950819 2972.96375 L 1399.779504 2972.96375 L 1399.779504 1131.578905 L 2990.752572 1131.578905 L 2990.752572 2641.482536 Z M 2611.950819 2972.96375 " transform="matrix(0.136935,0,0,-0.136968,253.360716,470.408153)"/>
<path style="fill-rule:nonzero;fill:rgb(100%,56.858826%,30.198669%);fill-opacity:1;stroke-width:45;stroke-linecap:round;stroke-linejoin:round;stroke:rgb(19.219971%,19.219971%,52.159119%);stroke-opacity:1;stroke-miterlimit:10;" d="M 2611.950819 2641.482536 L 2990.752572 2641.482536 L 2611.950819 2972.96375 Z M 2611.950819 2641.482536 " transform="matrix(0.136935,0,0,-0.136968,253.360716,470.408153)"/>
<path style="fill-rule:nonzero;fill:rgb(36.079407%,88.238525%,90.19928%);fill-opacity:1;stroke-width:45;stroke-linecap:round;stroke-linejoin:round;stroke:rgb(19.219971%,19.219971%,52.159119%);stroke-opacity:1;stroke-miterlimit:10;" d="M 3155.207133 1131.578905 L 1235.239364 1131.578905 L 1235.239364 2432.862982 Z M 3155.207133 1131.578905 " transform="matrix(0.136935,0,0,-0.136968,253.360716,470.408153)"/>
<path style="fill-rule:nonzero;fill:rgb(21.958923%,71.369934%,100%);fill-opacity:1;stroke-width:45;stroke-linecap:round;stroke-linejoin:round;stroke:rgb(19.219971%,19.219971%,52.159119%);stroke-opacity:1;stroke-miterlimit:10;" d="M 1235.239364 1131.578905 L 3155.207133 1131.578905 L 3155.207133 2432.862982 Z M 1235.239364 1131.578905 " transform="matrix(0.136935,0,0,-0.136968,253.360716,470.408153)"/>
<path style="fill:none;stroke-width:45;stroke-linecap:round;stroke-linejoin:round;stroke:rgb(19.219971%,19.219971%,52.159119%);stroke-opacity:1;stroke-miterlimit:10;" d="M 1618.291547 2526.092964 L 2801.365959 2526.092964 " transform="matrix(0.136935,0,0,-0.136968,253.360716,470.408153)"/>
<path style="fill:none;stroke-width:45;stroke-linecap:round;stroke-linejoin:round;stroke:rgb(19.219971%,19.219971%,52.159119%);stroke-opacity:1;stroke-miterlimit:10;" d="M 1618.291547 2354.263461 L 2801.365959 2354.263461 " transform="matrix(0.136935,0,0,-0.136968,253.360716,470.408153)"/>
<path style="fill:none;stroke-width:45;stroke-linecap:round;stroke-linejoin:round;stroke:rgb(19.219971%,19.219971%,52.159119%);stroke-opacity:1;stroke-miterlimit:10;" d="M 1759.753848 2182.37692 L 2630.749701 2182.37692 " transform="matrix(0.136935,0,0,-0.136968,253.360716,470.408153)"/>
<path style="fill:none;stroke-width:45;stroke-linecap:round;stroke-linejoin:round;stroke:rgb(19.219971%,19.219971%,52.159119%);stroke-opacity:1;stroke-miterlimit:10;" d="M 1025.884287 1436.565578 L 1025.884287 1277.455736 " transform="matrix(0.136935,0,0,-0.136968,253.360716,470.408153)"/>
<path style="fill:none;stroke-width:45;stroke-linecap:round;stroke-linejoin:round;stroke:rgb(19.219971%,19.219971%,52.159119%);stroke-opacity:1;stroke-miterlimit:10;" d="M 1105.415825 1356.996398 L 946.324223 1356.996398 " transform="matrix(0.136935,0,0,-0.136968,253.360716,470.408153)"/>
<g clip-path="url(#clip8)" clip-rule="nonzero">
<path style="fill:none;stroke-width:45;stroke-linecap:round;stroke-linejoin:round;stroke:rgb(19.219971%,19.219971%,52.159119%);stroke-opacity:1;stroke-miterlimit:10;" d="M 847.70854 1277.455736 L 847.70854 1021.208751 " transform="matrix(0.136935,0,0,-0.136968,253.360716,470.408153)"/>
</g>
<g clip-path="url(#clip9)" clip-rule="nonzero">
<path style="fill:none;stroke-width:45;stroke-linecap:round;stroke-linejoin:round;stroke:rgb(19.219971%,19.219971%,52.159119%);stroke-opacity:1;stroke-miterlimit:10;" d="M 975.820497 1149.346504 L 719.596583 1149.346504 " transform="matrix(0.136935,0,0,-0.136968,253.360716,470.408153)"/>
</g>
<path style="fill:none;stroke-width:45;stroke-linecap:round;stroke-linejoin:round;stroke:rgb(19.219971%,19.219971%,52.159119%);stroke-opacity:1;stroke-miterlimit:10;" d="M 1012.533943 3168.00806 L 1012.533943 3008.869699 " transform="matrix(0.136935,0,0,-0.136968,253.360716,470.408153)"/>
<path style="fill:none;stroke-width:45;stroke-linecap:round;stroke-linejoin:round;stroke:rgb(19.219971%,19.219971%,52.159119%);stroke-opacity:1;stroke-miterlimit:10;" d="M 1092.065481 3088.43888 L 932.916826 3088.43888 " transform="matrix(0.136935,0,0,-0.136968,253.360716,470.408153)"/>
<path style="fill:none;stroke-width:45;stroke-linecap:round;stroke-linejoin:round;stroke:rgb(19.219971%,19.219971%,52.159119%);stroke-opacity:1;stroke-miterlimit:10;" d="M 3391.291424 1389.223342 L 3391.291424 1230.1135 " transform="matrix(0.136935,0,0,-0.136968,253.360716,470.408153)"/>
<path style="fill:none;stroke-width:45;stroke-linecap:round;stroke-linejoin:round;stroke:rgb(19.219971%,19.219971%,52.159119%);stroke-opacity:1;stroke-miterlimit:10;" d="M 3470.851488 1309.654161 L 3311.759887 1309.654161 " transform="matrix(0.136935,0,0,-0.136968,253.360716,470.408153)"/>
<path style="fill:none;stroke-width:45;stroke-linecap:round;stroke-linejoin:round;stroke:rgb(19.219971%,19.219971%,52.159119%);stroke-opacity:1;stroke-miterlimit:10;" d="M 3404.299452 2916.523818 L 3404.299452 2660.362392 " transform="matrix(0.136935,0,0,-0.136968,253.360716,470.408153)"/>
<g clip-path="url(#clip10)" clip-rule="nonzero">
<path style="fill:none;stroke-width:45;stroke-linecap:round;stroke-linejoin:round;stroke:rgb(19.219971%,19.219971%,52.159119%);stroke-opacity:1;stroke-miterlimit:10;" d="M 3532.382882 2788.443105 L 3276.158969 2788.443105 " transform="matrix(0.136935,0,0,-0.136968,253.360716,470.408153)"/>
</g>
</g>
</svg>
